<svg id="Calque_1" data-name="Calque 1" xmlns="http://www.w3.org/2000/svg" viewBox="0 0 1920 1080"><defs><style>.cls-1{fill:#1f0d37;}</style></defs><title>Plan de travail 1</title><path class="cls-1" d="M601.94,1084.86H.15V760.68c33.24,58,44.41,128.49,25.71,192.37,38-38.31,91.92-65.63,146.2-69.4-6.73,47.19-38.58,90.08-81.87,111.35,31.22-13.06,68.28-19.83,101.34-16.83A223.27,223.27,0,0,1,105.71,1027a222.21,222.21,0,0,1,68.46,3.54,129.22,129.22,0,0,1,27.55-25.48c18.57-12.33,42.17-18.48,63.61-12.47s39.53,25.8,39.66,48.09c7.45-12.11,23.29-18.39,37-14.67s24.19,17.19,24.45,31.41c20.46-9.42,45.14-9,65.42.72a31.91,31.91,0,0,1,8.88-5.61,33.61,33.61,0,0,1,34.68,6.32,17.3,17.3,0,0,1,29.7-7.13A48.09,48.09,0,0,0,486.82,1037c13.68-6.1,31.72,1.35,37.15,15.3a50.33,50.33,0,0,1,35.4-27.64,72.3,72.3,0,0,0-12.7,25.39,29.69,29.69,0,0,1,31.81-5.56,30,30,0,0,0-20.24,14.81C575.2,1062.38,590.64,1071.81,601.94,1084.86Z"/><path class="cls-1" d="M1328.9,1084.86H1059.32c21.89-17.09,52.26-25.62,76.13-10.18,5.43-15.71,22.84-16.6,34.41-8.89-.31-7.09-6.15-11.48-12.83-13,11.71-4.4,25.39-.5,33.33,8.88,15.89-22.3,43.52-13.15,62.68-3C1276.55,1029.72,1309.16,1059,1328.9,1084.86Z"/><g id="arbre2"><polygon class="cls-1" points="1821.23 439.13 1774.48 564.61 1808.93 564.61 1764.64 603.38 1677.3 894.31 1735.12 894.31 1671.15 940.37 1619.47 1079.78 1991 1079.78 1821.23 439.13"/><polygon class="cls-1" points="1430.02 1079.49 1466.22 981.84 1511.03 949.57 1470.53 949.57 1531.71 745.77 1562.73 718.62 1538.61 718.62 1571.35 630.72 1690.28 1079.49 1430.02 1079.49"/><path class="cls-1" d="M1451.29,1007.47a35.39,35.39,0,0,1,3.34-4.12c1.18-1.49,2.38-3,3.67-4.37,2.42-2.64-.69-7.18-4-5.13a13.15,13.15,0,0,0-5.29,5.83,9.62,9.62,0,0,0-.77,4.39c-1.88-2-3.81-3.88-5.71-5.63,1.25-1.89,1.3-4.46,2.38-6.53,1.21-2.33,3.27-5.15,3-7.84a3.2,3.2,0,0,0-4.74-2.72c-3,1.5-4,5.81-4.15,8.95a34.79,34.79,0,0,0,0,5c-2.13-1.87-4.44-3.79-6.9-5.65h0c1.53-.89,2-2.31,2.49-3.94a44.27,44.27,0,0,1,2.12-5.2c1.85-3.94-3.56-7.25-5.91-3.45-1.39,2.24-3.27,6.72-2.56,9.9-1.72-1.16-3.47-2.27-5.26-3.25a108.88,108.88,0,0,1,4.41-10.26c2.48-4.56-4.84-7.83-6.64-2.8a27.07,27.07,0,0,0-1.74,11.13,36.38,36.38,0,0,0-5.22-1.82c-2.62-5-7.77-7.52-12.81-9.52-5.85-2.32-9,8.1-2.63,9.57,4.62,1.08,9.16,2.74,13.94,2.75a1.89,1.89,0,0,0,.34-.09c1.2,1,2.46,1.87,3.69,2.79a32.92,32.92,0,0,0-12.74,3.25c-5.52,2.62-.44,11.62,4.84,8.27a52.74,52.74,0,0,0,10.93-9.11s0-.1.07-.15c1.9,1.33,3.81,2.63,5.72,3.95a26.65,26.65,0,0,0-6.06,2c-2.7,1.33-6.94,3.83-7.41,7s1.7,5.56,4.91,4.92c2.82-.57,4.87-3.74,6.83-5.7a68.51,68.51,0,0,1,5.9-5.27,71.05,71.05,0,0,1,6.28,5.16l.11.11c-4.18.69-8.2,1.93-11.52,4.64-4.1,3.36,2.11,9.85,5.9,5.9,1.31-1.36,2.46-2.77,3.66-4.22a18.62,18.62,0,0,1,4.41-3.58s0,0,0-.06c1.54,1.67,3,3.41,4.39,5.18a34.34,34.34,0,0,0-11,4.4,4,4,0,0,0,4,6.9,34.54,34.54,0,0,0,9.65-7.49,1.88,1.88,0,0,0,.12-.18,110.81,110.81,0,0,0,9.49,11.3c1.66,1.64,4.83,0,4-2.36A40.75,40.75,0,0,0,1451.29,1007.47Z"/><path class="cls-1" d="M1465.09,975.41a28.27,28.27,0,0,1,3.5-2.37c1.25-.87,2.52-1.72,3.83-2.5,2.47-1.46,1.13-5.65-1.84-4.85a10.56,10.56,0,0,0-5.41,3.24,7.81,7.81,0,0,0-1.6,3.19c-1-2-2-3.86-3.06-5.63,1.39-1.17,2-3.12,3.33-4.46,1.46-1.5,3.69-3.18,4.09-5.3a2.57,2.57,0,0,0-3-3.19c-2.69.44-4.42,3.51-5.25,5.89a26.63,26.63,0,0,0-1.15,3.83c-1.21-1.92-2.53-3.93-4-5.92h0c1.37-.34,2-1.33,2.82-2.45a35,35,0,0,1,2.82-3.49c2.33-2.58-1-6.37-3.72-4-1.59,1.39-4.07,4.38-4.25,7-1-1.28-2.13-2.54-3.28-3.7a88.76,88.76,0,0,1,5.75-6.83c3-2.92-1.89-7.11-4.43-3.68a21.48,21.48,0,0,0-3.91,8.12,27.09,27.09,0,0,0-3.58-2.6c-.85-4.42-4.21-7.57-7.6-10.27-3.94-3.13-8.74,4.12-4.23,6.72,3.29,1.9,6.38,4.22,10,5.34.09,0,.18,0,.28,0,.69,1,1.44,2,2.18,3A26.21,26.21,0,0,0,1433,950c-4.83.73-3,8.79,1.79,7.46a42.49,42.49,0,0,0,10.48-4.45s0-.06.08-.09l3.46,4.34a21.84,21.84,0,0,0-5.1.15c-2.38.39-6.2,1.32-7.3,3.67s0,4.65,2.62,4.9c2.29.22,4.59-1.73,6.54-2.78a58.54,58.54,0,0,1,5.74-2.67,59.25,59.25,0,0,1,3.62,5.41.67.67,0,0,0,.06.12,19,19,0,0,0-9.9.87c-3.92,1.62-.67,8,3.15,5.89,1.32-.74,2.52-1.55,3.78-2.38a14.64,14.64,0,0,1,4.21-1.72s0,0,0,0c.79,1.63,1.49,3.29,2.16,5a27.44,27.44,0,0,0-9.44.83,3.2,3.2,0,0,0,1.49,6.22,27.94,27.94,0,0,0,9.12-3.51.76.76,0,0,0,.14-.11,88.31,88.31,0,0,0,4.65,10.85c.89,1.65,3.69,1.12,3.64-.86A32.67,32.67,0,0,0,1465.09,975.41Z"/><path class="cls-1" d="M1706.14,801.05a33.27,33.27,0,0,1,3.16-3.9c1.12-1.42,2.25-2.81,3.48-4.15,2.29-2.51-.66-6.8-3.76-4.86a12.47,12.47,0,0,0-5,5.53,9.13,9.13,0,0,0-.73,4.16c-1.78-1.88-3.62-3.68-5.41-5.33,1.18-1.8,1.23-4.23,2.25-6.2,1.15-2.21,3.09-4.88,2.81-7.43a3,3,0,0,0-4.5-2.57c-2.89,1.42-3.81,5.5-3.92,8.48a31.27,31.27,0,0,0,0,4.74c-2-1.77-4.22-3.59-6.55-5.35h0c1.44-.85,1.85-2.2,2.36-3.74a40.38,40.38,0,0,1,2-4.93c1.76-3.73-3.37-6.87-5.6-3.27-1.32,2.13-3.1,6.37-2.42,9.39-1.63-1.1-3.29-2.16-5-3.08a103.89,103.89,0,0,1,4.17-9.73c2.36-4.33-4.59-7.41-6.29-2.65a25.68,25.68,0,0,0-1.65,10.56,32.19,32.19,0,0,0-4.94-1.72c-2.49-4.72-7.38-7.13-12.16-9-5.55-2.2-8.5,7.68-2.49,9.08,4.39,1,8.69,2.59,13.22,2.6.13,0,.21-.07.33-.09,1.13.93,2.32,1.78,3.5,2.64a31.15,31.15,0,0,0-12.08,3.09c-5.23,2.49-.42,11,4.59,7.84a50.2,50.2,0,0,0,10.36-8.64s0-.1.07-.14l5.42,3.74a25.5,25.5,0,0,0-5.74,1.92c-2.57,1.26-6.59,3.63-7,6.67s1.61,5.28,4.67,4.66c2.66-.53,4.61-3.54,6.46-5.4a66.08,66.08,0,0,1,5.59-5,67.08,67.08,0,0,1,6,4.89l.1.11c-4,.65-7.78,1.82-10.92,4.4-3.89,3.18,2,9.33,5.6,5.59,1.23-1.29,2.32-2.63,3.46-4a17.6,17.6,0,0,1,4.18-3.4s0,0,0,0c1.46,1.57,2.83,3.22,4.16,4.9a32.34,32.34,0,0,0-10.42,4.18,3.79,3.79,0,0,0,3.83,6.54,32.84,32.84,0,0,0,9.15-7.11,1,1,0,0,0,.11-.17,102.9,102.9,0,0,0,9,10.71c1.57,1.56,4.57,0,3.84-2.24A38.84,38.84,0,0,0,1706.14,801.05Z"/><path class="cls-1" d="M1722.06,767.49a32.58,32.58,0,0,1,4.64-1.92c1.66-.71,3.33-1.4,5-2,3.21-1.11,2.66-6.29-1-6.06a12.41,12.41,0,0,0-7,2.47,9.14,9.14,0,0,0-2.63,3.31c-.66-2.51-1.42-5-2.21-7.27,1.9-1,3.11-3.13,4.94-4.38,2.06-1.39,5-2.81,6-5.18a3,3,0,0,0-2.72-4.41c-3.22-.13-6,3-7.5,5.58a34.5,34.5,0,0,0-2.25,4.17c-.93-2.52-2-5.17-3.2-7.83l0,0c1.67-.06,2.68-1,3.86-2.16a41.7,41.7,0,0,1,4.11-3.38c3.33-2.44.32-7.65-3.36-5.55-2.17,1.24-5.77,4.13-6.61,7.1-.91-1.75-1.86-3.46-2.92-5.09a105.52,105.52,0,0,1,8.32-6.55c4.13-2.69-.5-8.71-4.27-5.34a25.6,25.6,0,0,0-6.48,8.5,32.9,32.9,0,0,0-3.53-3.88c.07-5.33-3.08-9.78-6.37-13.73-3.83-4.59-11.14,2.69-6.52,6.78,3.37,3,6.39,6.42,10.37,8.6a2,2,0,0,0,.33.08c.55,1.35,1.2,2.66,1.82,4a31.24,31.24,0,0,0-12.09-3c-5.79-.31-5.63,9.48.29,9.08a49.9,49.9,0,0,0,13.23-2.65s.07-.07.12-.09l3,5.87a25.66,25.66,0,0,0-6-1c-2.85-.12-7.52,0-9.36,2.51s-1.1,5.41,1.88,6.32c2.6.8,5.74-.91,8.26-1.66a67.89,67.89,0,0,1,7.3-1.73,69,69,0,0,1,2.91,7.15l0,.14c-3.79-1.32-7.7-2.1-11.7-1.34-4.93.94-2.69,9.16,2.25,7.58,1.71-.54,3.3-1.19,5-1.86a17.57,17.57,0,0,1,5.3-1l.06,0c.53,2.08.95,4.18,1.32,6.29a32.54,32.54,0,0,0-11.15-1.3,3.79,3.79,0,0,0,.24,7.58,32.85,32.85,0,0,0,11.43-1.89,1.63,1.63,0,0,0,.19-.09,102.18,102.18,0,0,0,2.8,13.71c.64,2.12,4,2.18,4.44-.14A38.66,38.66,0,0,0,1722.06,767.49Z"/></g></svg>