<svg id="Calque_1" data-name="Calque 1" xmlns="http://www.w3.org/2000/svg" xmlns:xlink="http://www.w3.org/1999/xlink" viewBox="0 0 1920 1080"><defs><style>.cls-1{fill:url(#linear-gradient);}.cls-2{fill:url(#linear-gradient-2);}.cls-3{fill:url(#linear-gradient-3);}.cls-4{fill:url(#linear-gradient-4);}.cls-5{fill:url(#linear-gradient-5);}.cls-6{fill:url(#linear-gradient-6);}.cls-7{fill:url(#linear-gradient-7);}.cls-8{fill:url(#linear-gradient-8);}.cls-9{fill:url(#linear-gradient-9);}.cls-10{fill:url(#linear-gradient-10);}.cls-11{fill:url(#linear-gradient-11);}.cls-12{fill:url(#linear-gradient-12);}.cls-13{fill:url(#linear-gradient-13);}.cls-14{fill:url(#linear-gradient-14);}.cls-15{fill:url(#linear-gradient-15);}.cls-16{fill:url(#linear-gradient-16);}.cls-17{fill:url(#linear-gradient-17);}.cls-18{fill:url(#linear-gradient-18);}.cls-19{fill:url(#linear-gradient-19);}.cls-20{fill:url(#linear-gradient-20);}.cls-21{fill:url(#linear-gradient-21);}.cls-22{fill:url(#linear-gradient-22);}.cls-23{fill:url(#linear-gradient-23);}.cls-24{fill:url(#linear-gradient-24);}.cls-25{fill:url(#linear-gradient-25);}.cls-26{fill:url(#linear-gradient-26);}.cls-27{fill:url(#linear-gradient-27);}.cls-28{fill:url(#linear-gradient-28);}.cls-29{fill:url(#linear-gradient-29);}.cls-30{fill:url(#linear-gradient-30);}.cls-31{fill:url(#linear-gradient-31);}.cls-32{fill:url(#linear-gradient-32);}.cls-33{fill:url(#linear-gradient-33);}.cls-34{fill:url(#linear-gradient-34);}.cls-35{fill:url(#linear-gradient-35);}.cls-36{fill:url(#linear-gradient-36);}.cls-37{fill:url(#linear-gradient-37);}.cls-38{fill:url(#linear-gradient-38);}.cls-39{fill:url(#linear-gradient-39);}.cls-40{fill:url(#linear-gradient-40);}.cls-41{fill:url(#linear-gradient-41);}.cls-42{fill:url(#linear-gradient-42);}.cls-43{fill:url(#linear-gradient-43);}.cls-44{fill:url(#linear-gradient-44);}.cls-45{fill:url(#linear-gradient-45);}.cls-46{fill:url(#linear-gradient-46);}.cls-47{fill:url(#linear-gradient-47);}.cls-48{fill:url(#linear-gradient-48);}.cls-49{fill:url(#linear-gradient-49);}.cls-50{fill:url(#linear-gradient-50);}.cls-51{fill:url(#linear-gradient-51);}.cls-52{fill:url(#linear-gradient-52);}.cls-53{fill:url(#linear-gradient-53);}.cls-54{fill:url(#linear-gradient-54);}.cls-55{fill:url(#linear-gradient-55);}.cls-56{fill:url(#linear-gradient-56);}.cls-57{fill:url(#linear-gradient-57);}.cls-58{fill:url(#linear-gradient-58);}.cls-59{fill:url(#linear-gradient-59);}.cls-60{fill:url(#linear-gradient-60);}.cls-61{fill:url(#linear-gradient-61);}.cls-62{fill:url(#linear-gradient-62);}.cls-63{fill:url(#linear-gradient-63);}.cls-64{fill:url(#linear-gradient-64);}.cls-65{fill:url(#linear-gradient-65);}.cls-66{fill:url(#linear-gradient-66);}.cls-67{fill:url(#linear-gradient-67);}.cls-68{fill:url(#linear-gradient-68);}.cls-69{fill:url(#linear-gradient-69);}.cls-70{fill:url(#linear-gradient-70);}.cls-71{fill:url(#linear-gradient-71);}.cls-72{fill:url(#linear-gradient-72);}.cls-73{fill:url(#linear-gradient-73);}.cls-74{fill:url(#linear-gradient-74);}.cls-75{fill:url(#linear-gradient-75);}.cls-76{fill:url(#linear-gradient-76);}.cls-77{fill:url(#linear-gradient-77);}.cls-78{fill:url(#linear-gradient-78);}.cls-79{fill:url(#linear-gradient-79);}.cls-80{fill:url(#linear-gradient-80);}.cls-81{fill:url(#linear-gradient-81);}.cls-82{fill:url(#linear-gradient-82);}.cls-83{fill:url(#linear-gradient-83);}.cls-84{fill:url(#linear-gradient-84);}.cls-85{fill:url(#linear-gradient-85);}.cls-86{fill:url(#linear-gradient-86);}.cls-87{fill:url(#linear-gradient-87);}.cls-88{fill:url(#linear-gradient-88);}.cls-89{fill:url(#linear-gradient-89);}.cls-90{fill:url(#linear-gradient-90);}.cls-91{fill:url(#linear-gradient-91);}.cls-92{fill:url(#linear-gradient-92);}.cls-93{fill:url(#linear-gradient-93);}.cls-94{fill:url(#linear-gradient-94);}.cls-95{fill:url(#linear-gradient-95);}.cls-96{fill:url(#linear-gradient-96);}.cls-97{fill:url(#linear-gradient-97);}.cls-98{fill:url(#linear-gradient-98);}.cls-99{fill:url(#linear-gradient-99);}.cls-100{fill:url(#linear-gradient-100);}.cls-101{fill:url(#linear-gradient-101);}.cls-102{fill:url(#linear-gradient-102);}.cls-103{fill:url(#linear-gradient-103);}.cls-104{fill:url(#linear-gradient-104);}.cls-105{fill:url(#linear-gradient-105);}.cls-106{fill:url(#linear-gradient-106);}.cls-107{fill:url(#linear-gradient-107);}.cls-108{fill:url(#linear-gradient-108);}.cls-109{fill:url(#linear-gradient-109);}.cls-110{fill:url(#linear-gradient-110);}.cls-111{fill:url(#linear-gradient-111);}.cls-112{fill:url(#linear-gradient-112);}.cls-113{fill:url(#linear-gradient-113);}.cls-114{fill:url(#linear-gradient-114);}.cls-115{fill:url(#linear-gradient-115);}.cls-116{fill:url(#linear-gradient-116);}.cls-117{fill:url(#linear-gradient-117);}.cls-118{fill:url(#linear-gradient-118);}.cls-119{fill:url(#linear-gradient-119);}.cls-120{fill:url(#linear-gradient-120);}.cls-121{fill:url(#linear-gradient-121);}.cls-122{fill:url(#linear-gradient-122);}.cls-123{fill:url(#linear-gradient-123);}.cls-124{fill:url(#linear-gradient-124);}.cls-125{fill:url(#linear-gradient-125);}.cls-126{fill:url(#linear-gradient-126);}.cls-127{fill:url(#linear-gradient-127);}.cls-128{fill:url(#linear-gradient-128);}.cls-129{fill:url(#linear-gradient-129);}</style><linearGradient id="linear-gradient" x1="1036.16" y1="1000.26" x2="1039.14" y2="866.14" gradientUnits="userSpaceOnUse"><stop offset="0" stop-color="#fd75a8"/><stop offset="1" stop-color="#1a2c74"/></linearGradient><linearGradient id="linear-gradient-2" x1="1040.4" y1="1000.35" x2="1043.38" y2="866.24" xlink:href="#linear-gradient"/><linearGradient id="linear-gradient-3" x1="1027.06" y1="1000.06" x2="1030.04" y2="865.94" xlink:href="#linear-gradient"/><linearGradient id="linear-gradient-4" x1="1075.5" y1="1001.13" x2="1078.48" y2="867.02" xlink:href="#linear-gradient"/><linearGradient id="linear-gradient-5" x1="1105.86" y1="1001.81" x2="1108.84" y2="867.69" xlink:href="#linear-gradient"/><linearGradient id="linear-gradient-6" x1="1053.52" y1="1000.64" x2="1056.5" y2="866.53" xlink:href="#linear-gradient"/><linearGradient id="linear-gradient-7" x1="1003.22" y1="999.53" x2="1006.2" y2="865.41" xlink:href="#linear-gradient"/><linearGradient id="linear-gradient-8" x1="897.53" y1="997.18" x2="900.51" y2="863.06" xlink:href="#linear-gradient"/><linearGradient id="linear-gradient-9" x1="884.19" y1="996.88" x2="887.17" y2="862.77" xlink:href="#linear-gradient"/><linearGradient id="linear-gradient-10" x1="945.32" y1="998.24" x2="948.3" y2="864.12" xlink:href="#linear-gradient"/><linearGradient id="linear-gradient-11" x1="910.65" y1="997.47" x2="913.63" y2="863.35" xlink:href="#linear-gradient"/><linearGradient id="linear-gradient-12" x1="860.34" y1="996.35" x2="863.33" y2="862.24" xlink:href="#linear-gradient"/><linearGradient id="linear-gradient-13" x1="402.97" y1="986.19" x2="405.95" y2="852.07" xlink:href="#linear-gradient"/><linearGradient id="linear-gradient-14" x1="389.64" y1="985.89" x2="392.62" y2="851.78" xlink:href="#linear-gradient"/><linearGradient id="linear-gradient-15" x1="365.79" y1="985.36" x2="368.77" y2="851.25" xlink:href="#linear-gradient"/><linearGradient id="linear-gradient-16" x1="788.91" y1="994.76" x2="791.89" y2="860.65" xlink:href="#linear-gradient"/><linearGradient id="linear-gradient-17" x1="756.12" y1="994.03" x2="759.1" y2="859.92" xlink:href="#linear-gradient"/><linearGradient id="linear-gradient-18" x1="669.88" y1="992.12" x2="672.86" y2="858" xlink:href="#linear-gradient"/><linearGradient id="linear-gradient-19" x1="731.02" y1="993.48" x2="734" y2="859.36" xlink:href="#linear-gradient"/><linearGradient id="linear-gradient-20" x1="485.09" y1="988.01" x2="488.07" y2="853.9" xlink:href="#linear-gradient"/><linearGradient id="linear-gradient-21" x1="452.29" y1="987.28" x2="455.27" y2="853.17" xlink:href="#linear-gradient"/><linearGradient id="linear-gradient-22" x1="427.2" y1="986.73" x2="430.18" y2="852.61" xlink:href="#linear-gradient"/><linearGradient id="linear-gradient-23" x1="696.34" y1="992.71" x2="699.32" y2="858.59" xlink:href="#linear-gradient"/><linearGradient id="linear-gradient-24" x1="646.04" y1="991.59" x2="649.02" y2="857.47" xlink:href="#linear-gradient"/><linearGradient id="linear-gradient-25" x1="1288.96" y1="1005.88" x2="1291.94" y2="871.76" xlink:href="#linear-gradient"/><linearGradient id="linear-gradient-26" x1="1256.16" y1="1005.15" x2="1259.15" y2="871.03" xlink:href="#linear-gradient"/><linearGradient id="linear-gradient-27" x1="571.04" y1="989.92" x2="574.02" y2="855.81" xlink:href="#linear-gradient"/><linearGradient id="linear-gradient-28" x1="1231.07" y1="1004.59" x2="1234.05" y2="870.47" xlink:href="#linear-gradient"/><linearGradient id="linear-gradient-29" x1="597.5" y1="990.51" x2="600.48" y2="856.39" xlink:href="#linear-gradient"/><linearGradient id="linear-gradient-30" x1="1376.41" y1="1007.82" x2="1379.39" y2="873.7" xlink:href="#linear-gradient"/><linearGradient id="linear-gradient-31" x1="1348.26" y1="1007.19" x2="1351.24" y2="873.08" xlink:href="#linear-gradient"/><linearGradient id="linear-gradient-32" x1="1318.3" y1="1006.53" x2="1321.28" y2="872.41" xlink:href="#linear-gradient"/><linearGradient id="linear-gradient-33" x1="1465.47" y1="1009.8" x2="1468.45" y2="875.68" xlink:href="#linear-gradient"/><linearGradient id="linear-gradient-34" x1="1480.41" y1="1010.13" x2="1483.39" y2="876.01" xlink:href="#linear-gradient"/><linearGradient id="linear-gradient-35" x1="1493.26" y1="1010.42" x2="1496.24" y2="876.3" xlink:href="#linear-gradient"/><linearGradient id="linear-gradient-36" x1="1461.51" y1="1009.71" x2="1464.49" y2="875.59" xlink:href="#linear-gradient"/><linearGradient id="linear-gradient-37" x1="1437.21" y1="1009.17" x2="1440.19" y2="875.05" xlink:href="#linear-gradient"/><linearGradient id="linear-gradient-38" x1="1521.67" y1="1011.05" x2="1524.65" y2="876.93" xlink:href="#linear-gradient"/><linearGradient id="linear-gradient-39" x1="1360.98" y1="1007.48" x2="1363.96" y2="873.36" xlink:href="#linear-gradient"/><linearGradient id="linear-gradient-40" x1="1339.04" y1="1006.99" x2="1342.02" y2="872.87" xlink:href="#linear-gradient"/><linearGradient id="linear-gradient-41" x1="547.19" y1="989.39" x2="550.17" y2="855.28" xlink:href="#linear-gradient"/><linearGradient id="linear-gradient-42" x1="956.19" y1="998.48" x2="959.17" y2="864.37" xlink:href="#linear-gradient"/><linearGradient id="linear-gradient-43" x1="956.3" y1="998.89" x2="958.98" y2="877.99" gradientUnits="userSpaceOnUse"><stop offset="0" stop-color="#1a2c74"/><stop offset="1" stop-color="#fd75a8"/></linearGradient><linearGradient id="linear-gradient-44" x1="693.75" y1="1021.44" x2="696.73" y2="887.32" xlink:href="#linear-gradient"/><linearGradient id="linear-gradient-45" x1="680.41" y1="1021.14" x2="683.39" y2="887.03" xlink:href="#linear-gradient"/><linearGradient id="linear-gradient-46" x1="728.84" y1="1022.22" x2="731.82" y2="888.1" xlink:href="#linear-gradient"/><linearGradient id="linear-gradient-47" x1="759.21" y1="1022.89" x2="762.19" y2="888.78" xlink:href="#linear-gradient"/><linearGradient id="linear-gradient-48" x1="706.87" y1="1021.73" x2="709.85" y2="887.62" xlink:href="#linear-gradient"/><linearGradient id="linear-gradient-49" x1="656.56" y1="1020.61" x2="659.54" y2="886.5" xlink:href="#linear-gradient"/><linearGradient id="linear-gradient-50" x1="550.88" y1="1018.27" x2="553.86" y2="884.15" xlink:href="#linear-gradient"/><linearGradient id="linear-gradient-51" x1="537.54" y1="1017.97" x2="540.52" y2="883.85" xlink:href="#linear-gradient"/><linearGradient id="linear-gradient-52" x1="598.67" y1="1019.33" x2="601.65" y2="885.21" xlink:href="#linear-gradient"/><linearGradient id="linear-gradient-53" x1="564" y1="1018.56" x2="566.98" y2="884.44" xlink:href="#linear-gradient"/><linearGradient id="linear-gradient-54" x1="446.4" y1="992.39" x2="448.15" y2="913.48" xlink:href="#linear-gradient"/><linearGradient id="linear-gradient-55" x1="436.02" y1="1021.14" x2="439" y2="887.03" xlink:href="#linear-gradient"/><linearGradient id="linear-gradient-56" x1="475.1" y1="992.85" x2="476.85" y2="913.94" xlink:href="#linear-gradient"/><linearGradient id="linear-gradient-57" x1="514.82" y1="1022.89" x2="517.8" y2="888.78" xlink:href="#linear-gradient"/><linearGradient id="linear-gradient-58" x1="457.13" y1="992.53" x2="458.88" y2="913.62" xlink:href="#linear-gradient"/><linearGradient id="linear-gradient-59" x1="412.18" y1="1020.61" x2="415.16" y2="886.5" xlink:href="#linear-gradient"/><linearGradient id="linear-gradient-60" x1="306.49" y1="1018.27" x2="309.47" y2="884.15" xlink:href="#linear-gradient"/><linearGradient id="linear-gradient-61" x1="293.15" y1="1017.97" x2="296.13" y2="883.85" xlink:href="#linear-gradient"/><linearGradient id="linear-gradient-62" x1="354.28" y1="1019.33" x2="357.26" y2="885.21" xlink:href="#linear-gradient"/><linearGradient id="linear-gradient-63" x1="319.61" y1="1018.56" x2="322.59" y2="884.44" xlink:href="#linear-gradient"/><linearGradient id="linear-gradient-64" x1="513.69" y1="1017.44" x2="516.67" y2="883.32" xlink:href="#linear-gradient"/><linearGradient id="linear-gradient-65" x1="56.32" y1="1007.27" x2="59.3" y2="873.16" xlink:href="#linear-gradient"/><linearGradient id="linear-gradient-66" x1="42.98" y1="1006.98" x2="45.96" y2="872.86" xlink:href="#linear-gradient"/><linearGradient id="linear-gradient-67" x1="442.26" y1="1015.85" x2="445.24" y2="881.74" xlink:href="#linear-gradient"/><linearGradient id="linear-gradient-68" x1="409.46" y1="1015.12" x2="412.44" y2="881.01" xlink:href="#linear-gradient"/><linearGradient id="linear-gradient-69" x1="1217.55" y1="979.13" x2="1218.74" y2="925.33" xlink:href="#linear-gradient"/><linearGradient id="linear-gradient-70" x1="1209.79" y1="998.72" x2="1211.83" y2="907.31" xlink:href="#linear-gradient"/><linearGradient id="linear-gradient-71" x1="1239.12" y1="979.44" x2="1240.31" y2="925.64" xlink:href="#linear-gradient"/><linearGradient id="linear-gradient-72" x1="1269.02" y1="999.92" x2="1271.05" y2="908.5" xlink:href="#linear-gradient"/><linearGradient id="linear-gradient-73" x1="1225.62" y1="979.22" x2="1226.81" y2="925.41" xlink:href="#linear-gradient"/><linearGradient id="linear-gradient-74" x1="1191.87" y1="998.37" x2="1193.9" y2="906.92" xlink:href="#linear-gradient"/><linearGradient id="linear-gradient-75" x1="1268.16" y1="996.21" x2="1270.19" y2="904.76" xlink:href="#linear-gradient"/><linearGradient id="linear-gradient-76" x1="1214.47" y1="995.13" x2="1216.5" y2="903.68" xlink:href="#linear-gradient"/><linearGradient id="linear-gradient-77" x1="1189.83" y1="994.62" x2="1191.86" y2="903.2" xlink:href="#linear-gradient"/><linearGradient id="linear-gradient-78" x1="1595.68" y1="979.13" x2="1596.88" y2="925.33" xlink:href="#linear-gradient"/><linearGradient id="linear-gradient-79" x1="1587.93" y1="998.72" x2="1589.96" y2="907.31" xlink:href="#linear-gradient"/><linearGradient id="linear-gradient-80" x1="1617.25" y1="979.44" x2="1618.45" y2="925.64" xlink:href="#linear-gradient"/><linearGradient id="linear-gradient-81" x1="1647.15" y1="999.92" x2="1649.19" y2="908.5" xlink:href="#linear-gradient"/><linearGradient id="linear-gradient-82" x1="1603.75" y1="979.22" x2="1604.95" y2="925.41" xlink:href="#linear-gradient"/><linearGradient id="linear-gradient-83" x1="1570.01" y1="998.37" x2="1572.04" y2="906.92" xlink:href="#linear-gradient"/><linearGradient id="linear-gradient-84" x1="1592.61" y1="995.13" x2="1594.64" y2="903.68" xlink:href="#linear-gradient"/><linearGradient id="linear-gradient-85" x1="1567.96" y1="994.62" x2="1569.99" y2="903.2" xlink:href="#linear-gradient"/><linearGradient id="linear-gradient-86" x1="323.23" y1="1013.21" x2="326.21" y2="879.09" xlink:href="#linear-gradient"/><linearGradient id="linear-gradient-87" x1="384.37" y1="1014.56" x2="387.35" y2="880.45" xlink:href="#linear-gradient"/><linearGradient id="linear-gradient-88" x1="105.64" y1="1008.37" x2="108.62" y2="874.26" xlink:href="#linear-gradient"/><linearGradient id="linear-gradient-89" x1="349.69" y1="1013.79" x2="352.67" y2="879.68" xlink:href="#linear-gradient"/><linearGradient id="linear-gradient-90" x1="299.39" y1="1012.68" x2="302.37" y2="878.56" xlink:href="#linear-gradient"/><linearGradient id="linear-gradient-91" x1="92.24" y1="1040.34" x2="96.34" y2="855.74" xlink:href="#linear-gradient"/><linearGradient id="linear-gradient-92" x1="78.91" y1="1039.93" x2="83.01" y2="855.33" xlink:href="#linear-gradient"/><linearGradient id="linear-gradient-93" x1="140.03" y1="1041.86" x2="144.13" y2="857.26" xlink:href="#linear-gradient"/><linearGradient id="linear-gradient-94" x1="105.35" y1="1040.79" x2="109.45" y2="856.19" xlink:href="#linear-gradient"/><linearGradient id="linear-gradient-95" x1="109.03" y1="1033.38" x2="113.13" y2="848.77" xlink:href="#linear-gradient"/><linearGradient id="linear-gradient-96" x1="135.47" y1="1034.24" x2="139.57" y2="849.63" xlink:href="#linear-gradient"/><linearGradient id="linear-gradient-97" x1="85.19" y1="1032.6" x2="89.29" y2="848.18" xlink:href="#linear-gradient"/><linearGradient id="linear-gradient-98" x1="942.31" y1="1026.96" x2="945.29" y2="892.85" xlink:href="#linear-gradient"/><linearGradient id="linear-gradient-99" x1="909.51" y1="1026.23" x2="912.49" y2="892.12" xlink:href="#linear-gradient"/><linearGradient id="linear-gradient-100" x1="224.39" y1="1011.01" x2="227.37" y2="876.89" xlink:href="#linear-gradient"/><linearGradient id="linear-gradient-101" x1="884.42" y1="1025.68" x2="887.4" y2="891.56" xlink:href="#linear-gradient"/><linearGradient id="linear-gradient-102" x1="250.85" y1="1011.6" x2="253.83" y2="877.48" xlink:href="#linear-gradient"/><linearGradient id="linear-gradient-103" x1="1781.67" y1="1018.27" x2="1784.65" y2="884.15" xlink:href="#linear-gradient"/><linearGradient id="linear-gradient-104" x1="1768.33" y1="1017.97" x2="1771.31" y2="883.85" xlink:href="#linear-gradient"/><linearGradient id="linear-gradient-105" x1="1794.79" y1="1018.56" x2="1797.77" y2="884.44" xlink:href="#linear-gradient"/><linearGradient id="linear-gradient-106" x1="1804.97" y1="1028.27" x2="1808.67" y2="861.4" xlink:href="#linear-gradient"/><linearGradient id="linear-gradient-107" x1="1774.56" y1="1012.68" x2="1777.54" y2="878.56" xlink:href="#linear-gradient"/><linearGradient id="linear-gradient-108" x1="1699.57" y1="1011.01" x2="1702.55" y2="876.89" xlink:href="#linear-gradient"/><linearGradient id="linear-gradient-109" x1="1726.02" y1="1011.6" x2="1729" y2="877.48" xlink:href="#linear-gradient"/><linearGradient id="linear-gradient-110" x1="1029.76" y1="1028.91" x2="1032.74" y2="894.79" xlink:href="#linear-gradient"/><linearGradient id="linear-gradient-111" x1="1001.61" y1="1028.28" x2="1004.59" y2="894.17" xlink:href="#linear-gradient"/><linearGradient id="linear-gradient-112" x1="971.65" y1="1027.62" x2="974.63" y2="893.5" xlink:href="#linear-gradient"/><linearGradient id="linear-gradient-113" x1="1118.82" y1="1030.89" x2="1121.8" y2="896.77" xlink:href="#linear-gradient"/><linearGradient id="linear-gradient-114" x1="1133.76" y1="1031.22" x2="1136.74" y2="897.1" xlink:href="#linear-gradient"/><linearGradient id="linear-gradient-115" x1="1146.61" y1="1031.5" x2="1149.59" y2="897.39" xlink:href="#linear-gradient"/><linearGradient id="linear-gradient-116" x1="1114.86" y1="1030.8" x2="1117.84" y2="896.68" xlink:href="#linear-gradient"/><linearGradient id="linear-gradient-117" x1="1090.56" y1="1030.26" x2="1093.54" y2="896.14" xlink:href="#linear-gradient"/><linearGradient id="linear-gradient-118" x1="989.63" y1="1010.8" x2="992.31" y2="889.9" gradientTransform="matrix(-1, 0, 0, 1, 1947.63, 0)" xlink:href="#linear-gradient-43"/><linearGradient id="linear-gradient-119" x1="987.47" y1="754.26" x2="939.78" y2="1211.25" xlink:href="#linear-gradient"/><linearGradient id="linear-gradient-120" x1="270.79" y1="881.58" x2="258.87" y2="988.87" xlink:href="#linear-gradient"/><linearGradient id="linear-gradient-121" x1="526.84" y1="916.78" x2="523.61" y2="995.94" gradientTransform="matrix(-1, 0, 0, 1, 1906.89, 0)" xlink:href="#linear-gradient"/><linearGradient id="linear-gradient-122" x1="957.15" y1="1322.73" x2="957.15" y2="889.59" xlink:href="#linear-gradient"/><linearGradient id="linear-gradient-123" x1="2487.2" y1="802.84" x2="2487.2" y2="1045.49" gradientTransform="matrix(-1, 0, 0, 1, 2589.09, 0)" xlink:href="#linear-gradient"/><linearGradient id="linear-gradient-124" x1="794.24" y1="845.15" x2="794.24" y2="981.27" gradientTransform="matrix(-1, 0, 0, 1, 2589.09, 0)" xlink:href="#linear-gradient"/><linearGradient id="linear-gradient-125" x1="1151.74" y1="957.11" x2="1148.5" y2="1036.27" xlink:href="#linear-gradient"/><linearGradient id="linear-gradient-126" x1="1526.56" y1="878.03" x2="1535.51" y2="994.27" xlink:href="#linear-gradient"/><linearGradient id="linear-gradient-127" x1="1054.68" y1="914.21" x2="1054.68" y2="1049.22" gradientTransform="translate(-579.81)" xlink:href="#linear-gradient"/><linearGradient id="linear-gradient-128" x1="2484.94" y1="681.89" x2="2484.94" y2="954.79" gradientTransform="matrix(-0.98, 0.21, 0.21, 0.98, 2390.22, -368.4)" xlink:href="#linear-gradient"/><linearGradient id="linear-gradient-129" x1="969.96" y1="1251.2" x2="949.91" y2="1034.74" xlink:href="#linear-gradient"/></defs><title>Plan de travail 1</title><path class="cls-1" d="M1934.31,933.48c-34.19-.8-66.22-2-104.25-3.21-81.64-2.58-152.87-6.09-234.84-8.69-23.08-.74-49.81-1.24-71.38-2.2-22.38-1-37.66-2.36-58.69-3.46-13.36-.71-43-.4-53-.71-24.59-.75-28.35-1.28-57-1-19.87.21-67.63,2.21-102.33,4-37.85,2-59.27,2.33-91.06,3.59-10,.4-28.92.61-37.09.21-24.51-1.21-51.66-1.75-93.61,0-65.2,2.69-166.24,4.86-237.41,9.5-41.52,2.7-164.39,2-217.59,3.17-69.57,1.5-135.79,4.13-204.69,5.74-62.79,1.46-161.32,1.64-230.94,4.08H1934.31Z"/><polygon class="cls-2" points="1022.18 929.54 1061.77 929.54 1044.31 866.46 1022.18 929.54"/><polygon class="cls-3" points="1008.83 929.54 1048.42 929.54 1030.96 866.46 1008.83 929.54"/><polygon class="cls-4" points="1057.29 929.54 1096.88 929.54 1079.42 866.46 1057.29 929.54"/><polygon class="cls-5" points="1087.67 929.54 1127.26 929.54 1109.8 866.46 1087.67 929.54"/><polygon class="cls-6" points="1041.97 928.38 1068.28 928.38 1056.67 886.48 1041.97 928.38"/><polygon class="cls-7" points="989.5 929.54 1020.04 929.54 1006.57 896.85 989.5 929.54"/><polygon class="cls-8" points="879.24 929.54 918.83 929.54 901.36 866.46 879.24 929.54"/><polygon class="cls-9" points="865.89 929.54 905.48 929.54 888.02 866.46 865.89 929.54"/><polygon class="cls-10" points="934.51 929.54 959.19 929.54 948.3 890.21 934.51 929.54"/><polygon class="cls-11" points="899.03 928.38 925.33 928.38 913.73 886.48 899.03 928.38"/><polygon class="cls-12" points="846.56 929.54 877.1 929.54 863.63 896.85 846.56 929.54"/><polygon class="cls-13" points="384.44 929.54 424.03 929.54 406.56 866.46 384.44 929.54"/><polygon class="cls-14" points="371.09 929.54 410.68 929.54 393.22 866.46 371.09 929.54"/><polygon class="cls-15" points="351.76 929.54 382.3 929.54 368.83 896.85 351.76 929.54"/><polygon class="cls-16" points="775.09 929.54 805.63 929.54 792.16 896.85 775.09 929.54"/><polygon class="cls-17" points="737.75 929.54 777.34 929.54 759.88 866.46 737.75 929.54"/><polygon class="cls-18" points="651.48 929.54 691.07 929.54 673.61 866.46 651.48 929.54"/><polygon class="cls-19" points="720.1 929.54 744.78 929.54 733.89 890.21 720.1 929.54"/><polygon class="cls-20" points="470.88 940.23 501.42 940.23 487.95 907.53 470.88 940.23"/><polygon class="cls-21" points="433.54 940.23 473.13 940.23 455.67 877.15 433.54 940.23"/><polygon class="cls-22" points="415.89 940.23 440.57 940.23 429.68 900.89 415.89 940.23"/><polygon class="cls-23" points="684.62 928.38 710.92 928.38 699.32 886.48 684.62 928.38"/><polygon class="cls-24" points="632.15 929.54 662.69 929.54 649.22 896.85 632.15 929.54"/><polygon class="cls-25" points="1275.38 929.54 1305.92 929.54 1292.45 896.85 1275.38 929.54"/><polygon class="cls-26" points="1238.05 929.54 1277.64 929.54 1260.18 866.46 1238.05 929.54"/><polygon class="cls-27" points="552.45 935.63 592.04 935.63 574.58 872.55 552.45 935.63"/><polygon class="cls-28" points="1220.39 929.54 1245.08 929.54 1234.19 890.21 1220.39 929.54"/><polygon class="cls-29" points="585.59 934.47 611.89 934.47 600.29 892.56 585.59 934.47"/><polygon class="cls-30" points="1365.98 929.54 1390.32 929.54 1379.58 888.32 1365.98 929.54"/><polygon class="cls-31" points="1337.81 929.54 1362.15 929.54 1351.42 888.32 1337.81 929.54"/><polygon class="cls-32" points="1300.21 929.54 1339.81 929.54 1322.34 866.46 1300.21 929.54"/><polygon class="cls-33" points="1459.5 928.22 1475.06 928.22 1468.2 895.52 1459.5 928.22"/><polygon class="cls-34" points="1472.15 928.22 1492.31 928.22 1483.42 865.14 1472.15 928.22"/><polygon class="cls-35" points="1480.27 929.54 1509.84 929.54 1496.8 897.19 1480.27 929.54"/><polygon class="cls-36" points="1444.13 929.54 1482.46 929.54 1465.55 867.13 1444.13 929.54"/><polygon class="cls-37" points="1427.03 929.54 1450.93 929.54 1440.39 890.62 1427.03 929.54"/><polygon class="cls-38" points="1504.31 929.54 1542.64 929.54 1525.74 867.13 1504.31 929.54"/><polygon class="cls-39" points="1355.12 929.54 1370.3 929.54 1363.6 903.84 1355.12 929.54"/><polygon class="cls-40" points="1333.25 928.78 1348.3 928.78 1341.66 900.73 1333.25 928.78"/><polygon class="cls-41" points="533.12 935.63 563.66 935.63 550.19 902.93 533.12 935.63"/><path class="cls-42" d="M1762.86,919.65c-67.2-1.21-456.94.49-517.78.49H846.56c-87.95,0-113.71-2.31-234.67,4.93s-17.81-7.81-345.16-14.36c-119.35-2.39-168-35.35-286.73-42.27v173.41H1934.31V908.07C1880.94,913.51,1804.05,920.4,1762.86,919.65Z"/><path class="cls-43" d="M1762.86,929.5c-67.2-1-456.94.43-517.78.43H846.56c-87.95,0-113.71-2-234.67,4.28s-17.81-6.79-345.16-12.47c-119.35-2.07-168-30.69-286.73-36.69v150.53H1934.31V919.45C1880.94,924.17,1804.05,930.15,1762.86,929.5Z"/><polygon class="cls-44" points="675.53 950.63 715.12 950.63 697.65 887.55 675.53 950.63"/><polygon class="cls-45" points="662.18 950.63 701.77 950.63 684.31 887.55 662.18 950.63"/><polygon class="cls-46" points="710.64 950.63 750.23 950.63 732.77 887.55 710.64 950.63"/><polygon class="cls-47" points="741.02 950.63 780.61 950.63 763.15 887.55 741.02 950.63"/><polygon class="cls-48" points="695.32 949.47 721.62 949.47 710.02 907.57 695.32 949.47"/><polygon class="cls-49" points="642.85 950.63 673.39 950.63 659.92 917.93 642.85 950.63"/><polygon class="cls-50" points="532.59 950.63 572.17 950.63 554.71 887.55 532.59 950.63"/><polygon class="cls-51" points="519.24 950.63 558.83 950.63 541.37 887.55 519.24 950.63"/><polygon class="cls-52" points="587.86 950.63 612.54 950.63 601.65 911.3 587.86 950.63"/><polygon class="cls-53" points="552.38 949.47 578.68 949.47 567.08 907.57 552.38 949.47"/><polygon class="cls-54" points="431.14 950.63 463.51 950.63 449.23 913.63 431.14 950.63"/><polygon class="cls-55" points="417.79 950.63 457.38 950.63 439.92 887.55 417.79 950.63"/><polygon class="cls-56" points="459.85 950.63 492.22 950.63 477.94 913.63 459.85 950.63"/><polygon class="cls-57" points="496.63 950.63 536.22 950.63 518.76 887.55 496.63 950.63"/><polygon class="cls-58" points="447.32 949.95 468.83 949.95 459.34 925.37 447.32 949.95"/><polygon class="cls-59" points="398.46 950.63 429 950.63 415.53 917.93 398.46 950.63"/><polygon class="cls-60" points="288.2 950.63 327.79 950.63 310.32 887.55 288.2 950.63"/><polygon class="cls-61" points="274.85 950.63 314.44 950.63 296.98 887.55 274.85 950.63"/><polygon class="cls-62" points="343.47 950.63 368.15 950.63 357.26 911.3 343.47 950.63"/><polygon class="cls-63" points="307.99 949.47 334.29 949.47 322.69 907.57 307.99 949.47"/><polygon class="cls-64" points="499.91 950.63 530.45 950.63 516.98 917.93 499.91 950.63"/><polygon class="cls-65" points="37.79 950.63 77.38 950.63 59.91 887.55 37.79 950.63"/><polygon class="cls-66" points="24.44 950.63 64.03 950.63 46.57 887.55 24.44 950.63"/><polygon class="cls-67" points="428.44 950.63 458.98 950.63 445.51 917.93 428.44 950.63"/><polygon class="cls-68" points="391.1 950.63 430.69 950.63 413.23 887.55 391.1 950.63"/><polygon class="cls-69" points="1206.02 950.63 1230.34 950.63 1219.61 925.43 1206.02 950.63"/><polygon class="cls-70" points="1195.99 950.63 1225.74 950.63 1212.62 907.67 1195.99 950.63"/><polygon class="cls-71" points="1227.59 950.63 1251.92 950.63 1241.19 925.43 1227.59 950.63"/><polygon class="cls-72" points="1255.24 950.63 1284.99 950.63 1271.87 907.67 1255.24 950.63"/><polygon class="cls-73" points="1218.18 950.17 1234.34 950.17 1227.21 933.42 1218.18 950.17"/><polygon class="cls-74" points="1181.46 950.63 1204.41 950.63 1194.29 928.36 1181.46 950.63"/><polygon class="cls-75" points="1257.7 950.63 1280.65 950.63 1270.53 928.36 1257.7 950.63"/><polygon class="cls-76" points="1203.99 950.63 1226.94 950.63 1216.81 928.36 1203.99 950.63"/><polygon class="cls-77" points="1175.93 950.63 1205.68 950.63 1192.56 907.67 1175.93 950.63"/><polygon class="cls-78" points="1584.15 950.63 1608.48 950.63 1597.75 925.43 1584.15 950.63"/><polygon class="cls-79" points="1574.12 950.63 1603.87 950.63 1590.75 907.67 1574.12 950.63"/><polygon class="cls-80" points="1605.73 950.63 1630.06 950.63 1619.32 925.43 1605.73 950.63"/><polygon class="cls-81" points="1633.37 950.63 1663.13 950.63 1650 907.67 1633.37 950.63"/><polygon class="cls-82" points="1596.31 950.17 1612.48 950.17 1605.35 933.42 1596.31 950.17"/><polygon class="cls-83" points="1559.59 950.63 1582.54 950.63 1572.42 928.36 1559.59 950.63"/><polygon class="cls-84" points="1582.12 950.63 1605.07 950.63 1594.95 928.36 1582.12 950.63"/><polygon class="cls-85" points="1554.06 950.63 1583.82 950.63 1570.69 907.67 1554.06 950.63"/><polygon class="cls-86" points="304.83 950.63 344.42 950.63 326.95 887.55 304.83 950.63"/><polygon class="cls-87" points="373.44 950.63 398.13 950.63 387.24 911.3 373.44 950.63"/><polygon class="cls-88" points="86.89 961.31 126.48 961.31 109.02 898.24 86.89 961.31"/><polygon class="cls-89" points="337.97 949.47 364.27 949.47 352.67 907.57 337.97 949.47"/><polygon class="cls-90" points="285.5 950.63 316.04 950.63 302.56 917.93 285.5 950.63"/><polygon class="cls-91" points="74.51 947.41 114.1 947.41 96.64 860.4 74.51 947.41"/><polygon class="cls-92" points="61.17 947.41 100.76 947.41 83.29 860.4 61.17 947.41"/><polygon class="cls-93" points="129.78 947.41 154.47 947.41 143.58 893.15 129.78 947.41"/><polygon class="cls-94" points="94.31 945.81 120.61 945.81 109.01 888 94.31 945.81"/><polygon class="cls-95" points="91.14 947.41 130.73 947.41 113.27 860.4 91.14 947.41"/><polygon class="cls-96" points="124.28 945.81 150.59 945.81 138.98 888 124.28 945.81"/><polygon class="cls-97" points="71.81 947.41 102.35 947.41 88.88 902.31 71.81 947.41"/><polygon class="cls-98" points="928.73 950.63 959.27 950.63 945.8 917.93 928.73 950.63"/><polygon class="cls-99" points="891.4 950.63 930.99 950.63 913.53 887.55 891.4 950.63"/><polygon class="cls-100" points="205.8 956.71 245.39 956.71 227.93 893.63 205.8 956.71"/><polygon class="cls-101" points="873.74 950.63 898.43 950.63 887.54 911.3 873.74 950.63"/><polygon class="cls-102" points="238.94 955.56 265.24 955.56 253.64 913.65 238.94 955.56"/><polygon class="cls-103" points="1763.38 950.63 1802.96 950.63 1785.5 887.55 1763.38 950.63"/><polygon class="cls-104" points="1750.03 950.63 1789.62 950.63 1772.16 887.55 1750.03 950.63"/><polygon class="cls-105" points="1783.17 949.47 1809.47 949.47 1797.87 907.57 1783.17 949.47"/><polygon class="cls-106" points="1791.93 950.63 1821.45 950.63 1808.43 871.9 1791.93 950.63"/><polygon class="cls-107" points="1760.67 950.63 1791.21 950.63 1777.74 917.93 1760.67 950.63"/><polygon class="cls-108" points="1680.98 956.71 1720.57 956.71 1703.11 893.63 1680.98 956.71"/><polygon class="cls-109" points="1714.12 955.56 1740.42 955.56 1728.82 913.65 1714.12 955.56"/><polygon class="cls-110" points="1019.33 950.63 1043.66 950.63 1032.93 909.41 1019.33 950.63"/><polygon class="cls-111" points="991.16 950.63 1015.5 950.63 1004.76 909.41 991.16 950.63"/><polygon class="cls-112" points="953.56 950.63 993.15 950.63 975.69 887.55 953.56 950.63"/><polygon class="cls-113" points="1112.85 949.3 1128.4 949.3 1121.55 916.61 1112.85 949.3"/><polygon class="cls-114" points="1125.5 949.3 1145.66 949.3 1136.77 886.23 1125.5 949.3"/><polygon class="cls-115" points="1133.62 950.63 1163.19 950.63 1150.15 918.28 1133.62 950.63"/><polygon class="cls-116" points="1097.47 950.63 1135.81 950.63 1118.9 888.21 1097.47 950.63"/><polygon class="cls-117" points="1080.38 950.63 1104.28 950.63 1093.73 911.71 1080.38 950.63"/><path class="cls-118" d="M1667.49,933.21c-327.35,5.68-224.21,18.75-345.17,12.46-121.77-6.32-146.5-4.28-234.67-4.28H689.14c-60.85,0-450.58-1.48-517.79-.42-46.66.73-139.17-7-191.35-11.86v117.94H1934.31V897.77C1829.61,905.73,1779.94,931.25,1667.49,933.21Z"/><rect class="cls-119" x="-20" y="976.88" width="1954.31" height="135.75"/><path class="cls-120" d="M413,978.8l25.85-2.94s-17.12-9.54-22.3-22.65-23.73-14.67-27.72-12.2-9.2-10.12-19.63-11.15-19,31.47-21.6,31.24-2.58-8.78-9.13-18.9c-6.25-9.65-19.16-9.41-27.6-16.43-4.2-3.49-6.09-8.32-10.58-11.27-6.84-4.5-15.95-3.55-22.67-9.06-9.6-7.88-11.16-15.34-26.15-14.1-14.84,1.22-22.08,15.87-35.39,20.71-15.25,5.54-15.3,28.82-15.3,28.82s-4.62-3.18-13.89-3.18-10.6,13.17-14.57,10-3.27-29.44-25.12-27.92-23.17,31.78-35.72,40.87-29.73,15-29.73,15Q247.39,977.42,413,978.8Z"/><path class="cls-121" d="M1191.45,988.88c4.18-3.35,8.49-7.7,10.82-12.77,5.51-12,22.92-12.49,26.52-10s9.12-9,18.91-9.41,16.06,30.37,18.54,30.29,2.87-8.07,9.52-17.18c6.33-8.69,18.37-7.8,26.62-13.91,4.1-3.05,6.12-7.46,10.46-10,6.63-3.85,15.09-2.49,21.65-7.29,9.38-6.87,11.22-13.75,25.15-11.82s19.8,16,32,21.18c14,6,12.76,27.7,12.76,27.7s4.49-2.73,13.14-2.24,9.21,12.85,13.07,10.14,4.61-27.33,24.93-24.77,20,30.88,31.19,40,90.46,35.43,90.46,35.43c-103.13-4.69-269.76-29.3-372.89-34.13L1191,997.94Z"/><path class="cls-122" d="M1844.13,937.65c-81.05,17.24-163.44,17.59-247.41,24-83.11,6.39-157.06,34.16-244.2,26.65-76.58-6.6-138.52,6.49-216.13,14.29-136.68,13.73-259,1.14-392.35-15.11-115.32-14.06-226-18-345.72-8.63-77.13,6-115.88,6.14-190.71-9.86-67-14.33-178.23-66.85-203.49-78.62a129.53,129.53,0,0,0-24.12-8v193.35H1934.31v-168C1906.24,919.88,1876.91,930.68,1844.13,937.65Z"/><path class="cls-123" d="M180.56,971.65c-10.6-23-45.34-25.13-52.63-20.61S110,933.45,90.48,932s-33.19,56.32-38.16,56-5.47-15.44-18.46-33.12-38.94-14-38.94-14S-8.95,930.23-20,920.24V1019q97.89-1,195.78-2l48-6.09S191.16,994.64,180.56,971.65Z"/><path class="cls-124" d="M1934.31,930.2a31.86,31.86,0,0,0-7.7-.14,38,38,0,0,0-16.85-19.6c-13-7.34-25.88,8.49-26.71-5.05s-23.8-26.09-39-25-17.4,19.17-34.88,25.72-17.25,33.33-17.25,33.33-5.36-3.6-16-3.49-12,15.28-16.64,11.73-4.11-33.83-29.22-31.82-26.26,36.83-40.59,47.44-34,17.63-34,17.63q139.45,0,278.91-.2Z"/><path class="cls-125" d="M1340.33,1029.21c-4.18-3.35-8.49-7.7-10.82-12.77-5.52-12-22.92-12.49-26.53-10s-9.11-9-18.9-9.41-16.06,30.37-18.54,30.29-2.87-8.06-9.52-17.18c-6.33-8.69-18.37-7.79-26.62-13.91-4.11-3-6.12-7.46-10.46-10-6.63-3.85-15.09-2.49-21.65-7.29-9.38-6.87-11.23-13.75-25.15-11.82s-19.8,16-32,21.18c-14,6-12.77,27.7-12.77,27.7s-4.48-2.73-13.13-2.24-9.21,12.85-13.07,10.14-4.61-27.33-24.93-24.77-20,30.88-31.19,40-90.46,35.43-90.46,35.43c103.13-4.68,269.76-29.3,372.88-34.13l13.24-2.25Z"/><path class="cls-126" d="M1367,1033.52l-29.14-1.33s18.32-12.62,23-28.43,25.27-19.18,30-16.59,9.42-12.65,21-14.72,23.83,35.41,26.77,34.92,2.14-10.52,8.61-23c6.16-11.84,20.6-12.61,29.44-21.54,4.4-4.45,6.1-10.28,10.86-14.1,7.27-5.85,17.53-5.48,24.57-12.5,10.06-10,11.17-18.93,28-18.71,16.69.22,26,16.82,41.3,21.41,17.5,5.26,19.52,32.59,19.52,32.59s4.9-4.11,15.25-4.87,13,14.6,17.13,10.61,1.17-34.84,25.7-34.85,28.57,35.41,43.37,45.06,34.49,15.2,34.49,15.2Q1551.87,1018.32,1367,1033.52Z"/><path class="cls-127" d="M280.66,1048.9l-33.05-2.79s21.54-10.87,27.77-25.47,29.83-16.66,35-14,11.44-11.37,24.7-12.7,25,34.49,28.4,34.19,3-9.77,11.11-21.09c7.68-10.79,24.13-10.75,34.69-18.67,5.25-3.93,7.52-9.32,13.15-12.66,8.6-5.1,20.23-4.21,28.63-10.43,12-8.89,13.8-17.17,32.91-16.07,18.93,1.08,28.54,17.15,45.61,22.27,19.55,5.86,20.25,31.61,20.25,31.61s5.8-3.6,17.58-3.77,13.86,14.38,18.82,10.86,3.35-32.64,31.17-31.35,30.33,34.74,46.55,44.57,38.2,16.08,38.2,16.08Q491.41,1044.4,280.66,1048.9Z"/><path class="cls-128" d="M279.83,1020.32c-12-18.1-52-20-60.47-16.43s-20.5-13.89-43-15.12-38.5,44.08-44.21,43.81-6.22-12.15-21.09-26.07S66.3,995.38,66.3,995.38s-7.79-14.78-32.5-23.55-48.13,10.44-50.34-5.91a14.08,14.08,0,0,0-3.46-7v98.21q147-.72,294-1.24c22.12-1.82,33.18-2.73,55.3-4.53C329.29,1051.38,291.86,1038.42,279.83,1020.32Z"/><path class="cls-129" d="M1621.68,1106H1920V965.33c-39.84,13.37-69,10.75-122.86,11-82.67.35-163.21,15.64-247.09,22.85-83,7.14-156.63,34.36-243.84,28.41-76.66-5.23-138.44,8-215.94,16.35-136.5,14.79-259,4.51-392.51-9.09-115.48-11.77-226.26-14-345.79-3.59-77.05,6.71-115.8,7.34-190.82-6.8C106.89,1014.21,23.46,980.82-20,962.67V1106Z"/></svg>