<svg xmlns="http://www.w3.org/2000/svg" xmlns:xlink="http://www.w3.org/1999/xlink" viewBox="0 0 1920 1080"><defs><style>.cls-1{isolation:isolate;}.cls-2{fill:url(#linear-gradient);}.cls-3,.cls-6{mix-blend-mode:multiply;}.cls-3{fill:url(#linear-gradient-2);}.cls-4{fill:url(#linear-gradient-3);}.cls-5{fill:url(#linear-gradient-4);}.cls-6{fill:url(#linear-gradient-5);}.cls-7{fill:url(#linear-gradient-6);}.cls-8{fill:#1f0d37;}</style><linearGradient id="linear-gradient" x1="1880.78" y1="-3.6" x2="1880.78" y2="779.19" gradientUnits="userSpaceOnUse"><stop offset="0" stop-color="#fa6874"/><stop offset="1" stop-color="#ffc2c2"/></linearGradient><linearGradient id="linear-gradient-2" x1="2364.67" y1="88.86" x2="2027.53" y2="637.12" gradientUnits="userSpaceOnUse"><stop offset="0" stop-color="#6b2a54"/><stop offset="0.19" stop-color="#8d4464"/><stop offset="0.57" stop-color="#ca7582"/><stop offset="0.85" stop-color="#f09395"/><stop offset="1" stop-color="#ff9e9c"/></linearGradient><linearGradient id="linear-gradient-3" x1="64.09" y1="257.49" x2="182.78" y2="657.29" gradientUnits="userSpaceOnUse"><stop offset="0" stop-color="#fa6874"/><stop offset="0.26" stop-color="#fc8991"/><stop offset="0.57" stop-color="#fea8ac"/><stop offset="0.82" stop-color="#ffbbbc"/><stop offset="1" stop-color="#ffc2c2"/></linearGradient><linearGradient id="linear-gradient-4" x1="432.07" y1="282.28" x2="432.07" y2="721.71" gradientUnits="userSpaceOnUse"><stop offset="0" stop-color="#ffc2c2"/><stop offset="1" stop-color="#ffeefc"/></linearGradient><linearGradient id="linear-gradient-5" x1="-66.52" y1="298.97" x2="21.35" y2="594.94" xlink:href="#linear-gradient-2"/><linearGradient id="linear-gradient-6" x1="1074.2" y1="788.55" x2="1074.2" y2="531.84" gradientUnits="userSpaceOnUse"><stop offset="0" stop-color="#f35c6f"/><stop offset="0.99" stop-color="#3b113d"/></linearGradient></defs><title>Plan de travail 1</title><g class="cls-1"><g id="Calque_1" data-name="Calque 1"><path class="cls-2" d="M2181-14V789.86H1580.55c0-1.28,64.75-74.22,76-94.72,21.72-39.43,28.25-82.65,48.41-122.13,36-70.47,105.28-68.25,142.86-132,33.56-57,21.57-95.16,90.58-130.45C2004,277.07,2070.59,135.43,2097.53,66,2118,13.3,2114.21-7.74,2181-14Z"/><path class="cls-3" d="M2181-14V789.86H1857.85c18.72-50.22,97.4-261.3,114.42-315.61,19.35-61.8,142.67-137.79,164.43-160s0-162.64,0-214.39S2181-14,2181-14Z"/><path class="cls-4" d="M584.32,734.74H-172.77c3.62-7.72,7.35-15.1,12.86-22,9.14-11.3,24.87-19.84,29.57-33.94,4.65-13.88.81-29.52,4.48-43.79,7.79-30.41,24.33-51.78,43.63-76.13,23-28.87,45.3-51.17,77.46-68.47,10.54-5.68,22.16-10.58,28.16-21.32,3.3-5.95,6.33-13,9.3-19.17,7.13-14.71,8.76-30.52,15.51-45.28,6.38-14,13.68-24.9,25.36-35,14.48-12.51,31.62-19.12,40.59-37,4-8,8.7-16.59,11.14-25.23,2.21-7.88,1.51-15.81,3.67-23.69,2.16-8,8.06-35.86,15.84-39.83a5.6,5.6,0,0,0,.59-.27c7.3-3,13.57,7.21,18,11.89,14.11,14.88,29.08,27,41,43.63,8.32,11.52,18.75,17.08,23.19,31.29,2.92,9.2,3.24,18.51,5.46,27.77,3.29,13.71,14.16,23.13,20.75,35.25,5.36,9.75,8.49,20.55,17,27.76a77.16,77.16,0,0,0,9,6.56c8.86,5.78,18.59,10.52,26.92,17.13,7.84,6.28,21,11.29,26.81,19.5,11.35,15.86,9.46,39.94,20.16,56.69,12.6,19.77,31.35,36.07,49.46,50.4,22.44,17.85,49.68,26.28,74.27,40.1,13.52,7.6,24.76,18,38.38,25.5,11.62,6.45,21,15.6,29.73,25.62,17.73,20.44,28.81,46.16,38.49,71.28A3.36,3.36,0,0,0,584.32,734.74Z"/><path class="cls-5" d="M584.32,734.74H537.78c-10.49-19.56-19.3-40.11-32.11-58.29-27.4-39-65.14-54.37-101.89-79.87-12.81-8.87-20.49-18.51-31.41-29.69-10.81-11-23.19-18.68-31.14-32.06-14.21-24-10.91-58.28-32.75-75.36a122.81,122.81,0,0,1-28.65-31.62c8.86,5.78,18.59,10.52,26.92,17.13,7.84,6.28,21,11.29,26.81,19.5,11.35,15.86,9.46,39.94,20.16,56.69,12.6,19.77,31.35,36.07,49.46,50.4,22.44,17.85,49.68,26.28,74.27,40.1,13.52,7.6,24.76,18,38.38,25.5,11.62,6.45,21,15.6,29.73,25.62,17.73,20.44,28.81,46.16,38.49,71.28A3.36,3.36,0,0,0,584.32,734.74Z"/><path class="cls-6" d="M164,359.06C160,370.38,148.58,382.79,147.91,395c-.6,10.33,7.71,18.57,10.39,28.18,3.73,13.33,1,25.78-7.82,36.53-15.21,18.61-40.29,29.13-48.11,53.06-4.18,12.87-3.77,19.9-.64,32,4.25,16.37-.19,23.63-10,36.8C65.92,616.44,42.7,643.9,38.9,689.13c-1,11.62,1.49,29,1.94,45.61H-172.78c3.61-7.71,7.34-15.12,12.89-22,9.1-11.28,24.86-19.82,29.56-34,4.62-13.86.78-29.51,4.47-43.79,7.79-30.39,24.34-51.77,43.64-76.11,23-28.86,45.28-51.16,77.44-68.47,10.55-5.66,22.17-10.6,28.18-21.35,3.31-5.92,6.29-12.95,9.27-19.14,7.16-14.73,8.76-30.53,15.55-45.31,6.37-14,13.64-24.87,25.34-34.94,14.49-12.53,31.64-19.14,40.58-37,4-8,8.72-16.56,11.14-25.21,2.24-7.9,1.53-15.8,3.66-23.7,2.16-8.05,8.08-35.85,15.83-39.8.23-.12.45-.19.64-.31,15,16.6,21.84,47.06,24,66.54A109.34,109.34,0,0,1,164,359.06Z"/><path class="cls-7" d="M2181,560.33v520H-32.61V602.53C22.26,600.27,79.29,618.78,124,640c52,24.57,62.76.44,111.73-4.85,34.11-3.69,53,15.37,80,29.47,31.29,16.36,52.16,6.44,84.16,14.65,22.22,5.68,38.38,26.44,60.27,32.28,24.11,6.39,53.41,3.64,78.49,4.46,56.22,1.93,112.92-8.65,169.3-3.63,34.65,3,65.68,20.65,99.14,25.67,60.32,9,127.51,1.54,188.38,3.69,46.27,1.65,91.35,3.69,137.73,3.69h216.27c37.73,0,103.41-35.75,140.6-41.42,26.49-4,52,5.83,78.38,8.26,37.84,3.41,90-10.58,122.33-30.08,80-48.25,135.84-39.55,227.51-27.71,33.14,4.3,44.17-1.15,74.12-13.71,27.4-11.52,34.43-.77,63.35-5.57,39.89-6.61,59-66.32,100.75-73.59A108.19,108.19,0,0,1,2181,560.33Z"/><g id="arbre1"><polygon class="cls-8" points="1678.69 701.01 1702.66 562.6 1719.96 660.3 1725.29 643.34 1735.94 701.01 1678.69 701.01"/><polygon class="cls-8" points="346.97 706.26 366.35 594.39 380.34 673.36 384.64 659.65 393.25 706.26 346.97 706.26"/><polygon class="cls-8" points="72.84 661.53 88.41 622.04 95.83 633.57 115.11 542.86 135.88 661.53 72.84 661.53"/><polygon class="cls-8" points="1595.63 734.74 1623.04 608.26 1652.74 734.74 1595.63 734.74"/><polygon class="cls-8" points="214.33 734.74 241.74 608.26 271.44 734.74 214.33 734.74"/><polygon class="cls-8" points="-19.59 629.82 -2.04 548.84 16.98 629.82 -19.59 629.82"/><polygon class="cls-8" points="468.79 741.5 481.36 683.52 494.97 741.5 468.79 741.5"/><polygon class="cls-8" points="521.06 742.76 533.63 684.79 547.24 742.76 521.06 742.76"/><polygon class="cls-8" points="1437.73 735.25 1453.19 663.92 1469.94 735.25 1437.73 735.25"/><polygon class="cls-8" points="1508.04 742.83 1523.5 671.5 1540.24 742.83 1508.04 742.83"/></g></g></g></svg>