<svg xmlns="http://www.w3.org/2000/svg" xmlns:xlink="http://www.w3.org/1999/xlink" viewBox="0 0 1920 1080"><defs><style>.cls-1{isolation:isolate;}.cls-2{fill:url(#linear-gradient);}.cls-3{mix-blend-mode:soft-light;}.cls-4,.cls-5,.cls-6,.cls-7{opacity:0.82;}.cls-4{fill:url(#linear-gradient-2);}.cls-5{fill:url(#linear-gradient-3);}.cls-6{fill:url(#linear-gradient-4);}.cls-7{fill:url(#linear-gradient-5);}</style><linearGradient id="linear-gradient" x1="979.67" y1="987.49" x2="936.12" y2="-3.35" gradientUnits="userSpaceOnUse"><stop offset="0" stop-color="#fbc552"/><stop offset="1" stop-color="#fb6dbd"/></linearGradient><linearGradient id="linear-gradient-2" x1="282.83" y1="450.58" x2="281.22" y2="312.65" gradientUnits="userSpaceOnUse"><stop offset="0" stop-color="#fff" stop-opacity="0"/><stop offset="0.03" stop-color="#fffdf5" stop-opacity="0.08"/><stop offset="0.1" stop-color="#fff8df" stop-opacity="0.27"/><stop offset="0.17" stop-color="#fff4ca" stop-opacity="0.45"/><stop offset="0.25" stop-color="#fff0b9" stop-opacity="0.6"/><stop offset="0.33" stop-color="#ffedaa" stop-opacity="0.72"/><stop offset="0.42" stop-color="#ffea9e" stop-opacity="0.82"/><stop offset="0.52" stop-color="#ffe895" stop-opacity="0.9"/><stop offset="0.63" stop-color="#ffe78e" stop-opacity="0.96"/><stop offset="0.77" stop-color="#ffe68a" stop-opacity="0.99"/><stop offset="1" stop-color="#ffe689"/></linearGradient><linearGradient id="linear-gradient-3" x1="850.14" y1="219.15" x2="850.14" y2="82.59" xlink:href="#linear-gradient-2"/><linearGradient id="linear-gradient-4" x1="1725.11" y1="456.41" x2="1725.11" y2="302.91" xlink:href="#linear-gradient-2"/><linearGradient id="linear-gradient-5" x1="1052.56" y1="614.62" x2="1052.56" y2="490.35" xlink:href="#linear-gradient-2"/></defs><title>Plan de travail 1</title><g class="cls-1"><g id="Calque_1" data-name="Calque 1"><rect class="cls-2" width="1920" height="1080" rx="12.27"/><g class="cls-3"><path class="cls-4" d="M0,449H565.62c-46.1-6.18-90.53-18.39-130.08-42.65-17.45-10.71-39.48-23.85-56.5-12.47-11,7.36-16.13,23.54-29.16,25.94-14,2.57-24.17-12.62-29.69-25.71s-13.77-28.77-28-28.56c-12.77.18-21.4,13.67-33.68,17.21-17.22,5-33.67-11.55-39.32-28.56s-30.5-46.64-65.52-46.64c-51.18,0-59.47,44.16-80.51,56.79C45.86,380.76,26.23,354.86,0,349.65Z"/><path class="cls-5" d="M564,207.45c15.62,1.3,31.13,4.49,43.46-5.18s20.8-23.35,31.78-34.53,26.53-20.22,41.75-16.51c9.81,2.39,18.37,9.83,28.46,9.68,27.43-.39,30.66-50.75,58-52.76,15.49-1.14,29.48,15.35,44.37,10.93,8.06-2.39,13.06-10.14,18.75-16.34a62.28,62.28,0,0,1,101.65,14.32c5,10.07,7.27,21.43,13.14,31s17.34,17.36,28,13.8c8.43-2.82,13.93-11.87,22.63-13.68,10.75-2.23,20.1,7.47,25.89,16.81s11.74,20.28,22.41,22.91c7.6,1.87,15.43-1.15,23.1-2.73,33.73-6.95,66.25,14,94.33,34-10.31-.72-20.6-2.15-30.94-2.15H538.58C556.87,206.37,534.38,205,564,207.45Z"/><path class="cls-6" d="M1920,303.6l-.23,0a71.27,71.27,0,0,0-61.37,22c-6.39,7-12,15.67-21.07,18.36-16.74,5-32.46-13.56-49.87-12.28-30.76,2.26-34.39,58.86-65.22,59.31-11.35.16-21-8.21-32-10.89-17.11-4.17-34.59,6-46.93,18.56s-21.87,27.95-35.73,38.81-31.29,7.29-48.84,5.82c-33.25-2.77-8-1.21-28.52,10.74H1920Z"/><path class="cls-7" d="M885.49,543.84c8.34-9.7,22.63-15.54,34.27-10.22,7.73,3.54,13.16,11.34,21.31,13.78,9.59,2.87,19.87-2.74,26.55-10.2s11-16.7,17.37-24.46a60.81,60.81,0,0,1,97,3.56c8.19,11.71,14,27.72,28,30.92,17.7,4.07,32.48-16.28,50.63-16.94,13.39-.49,24.94,10.19,30.72,22.28,3.36,7,5.84,15.29,12.6,19.15,12.57,7.16,27-6.45,41.42-7.56,13.57-1,25.06,9,36.07,17a148.27,148.27,0,0,0,72.91,27.45c-24.15,1.8-48.23,5.41-72.45,5.41H750.88c-1.17,4.37,20.32-15.46,34.14-23.16a67.21,67.21,0,0,1,45.91-7c12.87,2.68,28.25,7.2,37.82-5.24C876.54,568.45,876.68,554.11,885.49,543.84Z"/></g></g></g></svg>