<svg id="Calque_1" data-name="Calque 1" xmlns="http://www.w3.org/2000/svg" viewBox="0 0 381 382"><defs><style>.cls-1{fill:#fff;stroke:#fff;stroke-miterlimit:10;stroke-width:2px;}</style></defs><path class="cls-1" d="M1.5,3V380h377V3Zm376,23.5H355V4h22.52Zm-187,141V145H213v22.52Zm22.52,1V191H190.49V168.49Zm-23.5-1H167V145h22.52Zm0,1V191H167V168.49ZM166,191H143.48V168.49H166Zm0,1v22.52H143.48V192Zm1,0h22.52v22.52H167Zm22.52,23.5V238H167V215.49Zm1,0H213V238H190.49Zm0-1V192H213v22.52ZM214,192h22.53v22.52H214Zm0-1V168.49h22.53V191Zm0-23.5V145h22.53v22.52Zm0-23.5V121.48h22.53V144Zm-1,0H190.49V121.48H213Zm-23.5,0H167V121.48h22.52ZM166,144H143.48V121.48H166Zm0,1v22.52H143.48V145Zm-23.5,22.52H120V145h22.53Zm0,1V191H120V168.49Zm0,23.5v22.52H120V192Zm0,23.5V238H120V215.49Zm1,0H166V238H143.48ZM166,239v22.53H143.48V239Zm1,0h22.52v22.53H167Zm23.5,0H213v22.53H190.49Zm23.5,0h22.53v22.53H214Zm0-1V215.49h22.53V238Zm23.5-22.52H260V238H237.49Zm0-1V192H260v22.52Zm0-23.5V168.49H260V191Zm0-23.5V145H260v22.52Zm0-23.5V121.48H260V144Zm0-23.5V98H260v22.53Zm-1,0H214V98h22.53Zm-23.51,0H190.49V98H213Zm-23.5,0H167V98h22.52Zm-23.5,0H143.48V98H166Zm-23.5,0H120V98h22.53Zm0,1V144H120V121.48ZM119,144H96.48V121.48H119Zm0,1v22.52H96.48V145Zm0,23.5V191H96.48V168.49Zm0,23.5v22.52H96.48V192Zm0,23.5V238H96.48V215.49Zm0,23.5v22.53H96.48V239Zm1,0h22.53v22.53H120Zm22.53,23.5V285H120V262.49Zm1,0H166V285H143.48Zm23.51,0h22.52V285H167Zm23.5,0H213V285H190.49Zm23.5,0h22.53V285H214Zm23.5,0H260V285H237.49Zm0-1V239H260v22.53ZM261,239h22.53v22.53H261Zm0-1V215.49h22.53V238Zm0-23.5V192h22.53v22.52Zm0-23.5V168.49h22.53V191Zm0-23.5V145h22.53v22.52Zm0-23.5V121.48h22.53V144Zm0-23.5V98h22.53v22.53ZM261,97V74.48h22.53V97Zm-1,0H237.49V74.48H260Zm-23.5,0H214V74.48h22.53ZM213,97H190.49V74.48H213Zm-23.5,0H167V74.48h22.52ZM166,97H143.48V74.48H166Zm-23.5,0H120V74.48h22.53ZM119,97H96.48V74.48H119Zm0,1v22.53H96.48V98Zm-23.5,22.53H73V98H95.51Zm0,1V144H73V121.48Zm0,23.51v22.52H73V145Zm0,23.5V191H73V168.49Zm0,23.5v22.52H73V192Zm0,23.5V238H73V215.49Zm0,23.5v22.53H73V239Zm0,23.5V285H73V262.49Zm1,0H119V285H96.48ZM119,286v22.53H96.48V286Zm1,0h22.53v22.53H120Zm23.5,0H166v22.53H143.48ZM167,286h22.52v22.53H167Zm23.5,0H213v22.53H190.49Zm23.5,0h22.53v22.53H214Zm23.5,0H260v22.53H237.49Zm23.5,0h22.53v22.53H261Zm0-1V262.49h22.53V285Zm23.5-22.53H307V285H284.49Zm0-1V239H307v22.53Zm0-23.51V215.49H307V238Zm0-23.5V192H307v22.52Zm0-23.5V168.49H307V191Zm0-23.5V145H307v22.52Zm0-23.5V121.48H307V144Zm0-23.5V98H307v22.53Zm0-23.5V74.48H307V97Zm0-23.51V51H307V73.5Zm-1,0H261V51h22.53Zm-23.5,0H237.49V51H260Zm-23.5,0H214V51h22.53ZM213,73.5H190.49V51H213Zm-23.5,0H167V51h22.52Zm-23.5,0H143.48V51H166Zm-23.5,0H120V51h22.53Zm-23.5,0H96.48V51H119Zm-23.5,0H73V51H95.51Zm0,1V97H73V74.48ZM72,97H49.48V74.48H72Zm0,1v22.53H49.48V98Zm0,23.5V144H49.48V121.48ZM72,145v22.52H49.48V145Zm0,23.5V191H49.48V168.49ZM72,192v22.52H49.48V192Zm0,23.5V238H49.48V215.49ZM72,239v22.53H49.48V239Zm0,23.5V285H49.48V262.49ZM72,286v22.53H49.48V286Zm1,0H95.51v22.53H73ZM95.51,309.5V332H73V309.5Zm1,0H119V332H96.48Zm23.5,0h22.53V332H120Zm23.5,0H166V332H143.48Zm23.51,0h22.52V332H167Zm23.5,0H213V332H190.49Zm23.5,0h22.53V332H214Zm23.5,0H260V332H237.49Zm23.5,0h22.53V332H261Zm23.5,0H307V332H284.49Zm0-1V286H307v22.53ZM308,286h22.52v22.53H308Zm0-1V262.49h22.52V285Zm0-23.5V239h22.52v22.53ZM308,238V215.49h22.52V238Zm0-23.5V192h22.52v22.52Zm0-23.5V168.49h22.52V191Zm0-23.5V145h22.52v22.52Zm0-23.5V121.48h22.52V144Zm0-23.5V98h22.52v22.53ZM308,97V74.48h22.52V97Zm0-23.51V51h22.52V73.5ZM308,50V27.48h22.52V50Zm-1,0H284.49V27.48H307Zm-23.5,0H261V27.48h22.53ZM260,50H237.49V27.48H260Zm-23.5,0H214V27.48h22.53ZM213,50H190.49V27.48H213Zm-23.5,0H167V27.48h22.52ZM166,50H143.48V27.48H166Zm-23.5,0H120V27.48h22.53ZM119,50H96.48V27.48H119Zm-23.5,0H73V27.48H95.51ZM72,50H49.48V27.48H72Zm0,1V73.5H49.48V51ZM48.5,73.5H26V51H48.5Zm0,1V97H26V74.48Zm0,23.5v22.53H26V98Zm0,23.5V144H26V121.48Zm0,23.51v22.52H26V145Zm0,23.5V191H26V168.49Zm0,23.5v22.52H26V192Zm0,23.5V238H26V215.49Zm0,23.5v22.53H26V239Zm0,23.5V285H26V262.49Zm0,23.5v22.53H26V286Zm0,23.51V332H26V309.5Zm1,0H72V332H49.48ZM72,333v22.52H49.48V333Zm1,0H95.51v22.52H73Zm23.5,0H119v22.52H96.48Zm23.5,0h22.53v22.52H120Zm23.5,0H166v22.52H143.48ZM167,333h22.52v22.52H167Zm23.5,0H213v22.52H190.49Zm23.5,0h22.53v22.52H214Zm23.5,0H260v22.52H237.49Zm23.5,0h22.53v22.52H261Zm23.5,0H307v22.52H284.49ZM308,333h22.52v22.52H308Zm0-1V309.5h22.52V332Zm23.5-22.52H354V332H331.5Zm0-1V286H354v22.53Zm0-23.5V262.49H354V285Zm0-23.5V239H354v22.53Zm0-23.51V215.49H354V238Zm0-23.5V192H354v22.52Zm0-23.5V168.49H354V191Zm0-23.5V145H354v22.52Zm0-23.5V121.48H354V144Zm0-23.5V98H354v22.53Zm0-23.5V74.48H354V97Zm0-23.51V51H354V73.5Zm0-23.5V27.48H354V50Zm0-23.5V4H354V26.5Zm-1,0H308V4h22.52Zm-23.5,0H284.49V4H307Zm-23.5,0H261V4h22.53Zm-23.5,0H237.49V4H260Zm-23.5,0H214V4h22.53ZM213,26.5H190.49V4H213Zm-23.5,0H167V4h22.52Zm-23.5,0H143.48V4H166Zm-23.5,0H120V4h22.53Zm-23.5,0H96.48V4H119Zm-23.5,0H73V4H95.51ZM72,26.5H49.48V4H72Zm-23.5,0H26V4H48.5Zm0,1V50H26V27.48ZM25,50H2.48V27.48H25Zm0,1V73.5H2.48V51Zm0,23.5V97H2.48V74.48ZM25,98v22.53H2.48V98Zm0,23.5V144H2.48V121.48ZM25,145v22.52H2.48V145Zm0,23.5V191H2.48V168.49ZM25,192v22.52H2.48V192Zm0,23.5V238H2.48V215.49ZM25,239v22.53H2.48V239Zm0,23.5V285H2.48V262.49ZM25,286v22.53H2.48V286Zm0,23.51V332H2.48V309.5ZM25,333v22.52H2.48V333Zm1,0H48.5v22.52H26ZM48.5,356.5V379H26V356.5Zm1,0H72V379H49.48Zm23.5,0H95.51V379H73Zm23.5,0H119V379H96.48Zm23.5,0h22.53V379H120Zm23.5,0H166V379H143.48Zm23.51,0h22.52V379H167Zm23.5,0H213V379H190.49Zm23.5,0h22.53V379H214Zm23.5,0H260V379H237.49Zm23.5,0h22.53V379H261Zm23.5,0H307V379H284.49Zm23.51,0h22.52V379H308Zm23.5,0H354V379H331.5Zm0-1V333H354v22.52ZM355,333h22.52v22.52H355Zm0-1V309.5h22.52V332Zm0-23.5V286h22.52v22.53Zm0-23.5V262.49h22.52V285Zm0-23.5V239h22.52v22.53ZM355,238V215.49h22.52V238Zm0-23.5V192h22.52v22.52Zm0-23.5V168.49h22.52V191Zm0-23.5V145h22.52v22.52Zm0-23.5V121.48h22.52V144Zm0-23.5V98h22.52v22.53ZM355,97V74.48h22.52V97Zm0-23.51V51h22.52V73.5ZM355,50V27.48h22.52V50ZM25,4V26.5H2.48V4ZM2.48,356.5H25V379H2.48ZM355,379V356.5h22.52V379Z"/></svg>