<?xml version="1.0" encoding="utf-8"?>
<!-- Generator: Adobe Illustrator 25.2.1, SVG Export Plug-In . SVG Version: 6.00 Build 0)  -->
<svg version="1.1" id="Calque_1" xmlns="http://www.w3.org/2000/svg" xmlns:xlink="http://www.w3.org/1999/xlink" x="0px" y="0px"
	 viewBox="0 0 1366 768" style="enable-background:new 0 0 1366 768;" xml:space="preserve">
<style type="text/css">
	.st0{fill:#FFFFFF;stroke:#FFFFFF;stroke-width:2;stroke-miterlimit:10;}
</style>
<path class="st0" d="M494.5,196v377h377V196H494.5z M870.52,219.5H848v-22.53h22.53V219.5z M683.49,360.51v-22.52h22.53v22.52
	H683.49z M706.01,361.49v22.52h-22.53v-22.52H706.01z M682.51,360.51h-22.53v-22.52h22.53V360.51z M682.51,361.49v22.52h-22.53
	v-22.52H682.51z M659.01,384.01h-22.53v-22.52h22.53V384.01z M659.01,384.99v22.53h-22.53v-22.53H659.01z M659.99,384.99h22.53
	v22.53h-22.53V384.99z M682.51,408.49v22.52h-22.53v-22.52H682.51z M683.49,408.49h22.53v22.52h-22.53V408.49z M683.49,407.51
	v-22.53h22.53v22.53H683.49z M706.99,384.99h22.53v22.53h-22.53V384.99z M706.99,384.01v-22.52h22.53v22.52H706.99z M706.99,360.51
	v-22.52h22.53v22.52H706.99z M706.99,337.01v-22.53h22.53v22.53H706.99z M706.01,337.01h-22.53v-22.53h22.53V337.01z M682.51,337.01
	h-22.53v-22.53h22.53V337.01z M659.01,337.01h-22.53v-22.53h22.53V337.01z M659.01,337.99v22.52h-22.53v-22.52H659.01z
	 M635.51,360.51h-22.53v-22.52h22.53V360.51z M635.51,361.49v22.52h-22.53v-22.52H635.51z M635.51,384.99v22.53h-22.53v-22.53
	H635.51z M635.51,408.49v22.52h-22.53v-22.52H635.51z M636.48,408.49h22.53v22.52h-22.53V408.49z M659.01,431.99v22.52h-22.53
	v-22.52H659.01z M659.99,431.99h22.53v22.52h-22.53V431.99z M683.49,431.99h22.53v22.52h-22.53V431.99z M706.99,431.99h22.53v22.52
	h-22.53V431.99z M706.99,431.01v-22.52h22.53v22.52H706.99z M730.49,408.49h22.53v22.52h-22.53V408.49z M730.49,407.51v-22.53h22.53
	v22.53H730.49z M730.49,384.01v-22.52h22.53v22.52H730.49z M730.49,360.51v-22.52h22.53v22.52H730.49z M730.49,337.01v-22.53h22.53
	v22.53H730.49z M730.49,313.51v-22.52h22.53v22.52H730.49z M729.52,313.51h-22.53v-22.52h22.53V313.51z M706.01,313.51h-22.53
	v-22.52h22.53V313.51z M682.51,313.51h-22.53v-22.52h22.53V313.51z M659.01,313.51h-22.53v-22.52h22.53V313.51z M635.51,313.51
	h-22.53v-22.52h22.53V313.51z M635.51,314.48v22.53h-22.53v-22.53H635.51z M612.01,337.01h-22.52v-22.53h22.52V337.01z
	 M612.01,337.99v22.52h-22.52v-22.52H612.01z M612.01,361.49v22.52h-22.52v-22.52H612.01z M612.01,384.99v22.53h-22.52v-22.53
	H612.01z M612.01,408.49v22.52h-22.52v-22.52H612.01z M612.01,431.99v22.52h-22.52v-22.52H612.01z M612.98,431.99h22.53v22.52
	h-22.53V431.99z M635.51,455.49v22.53h-22.53v-22.53H635.51z M636.48,455.49h22.53v22.53h-22.53V455.49z M659.99,455.49h22.53v22.53
	h-22.53V455.49z M683.49,455.49h22.53v22.53h-22.53V455.49z M706.99,455.49h22.53v22.53h-22.53V455.49z M730.49,455.49h22.53v22.53
	h-22.53V455.49z M730.49,454.52v-22.52h22.53v22.52H730.49z M753.99,431.99h22.53v22.52h-22.53V431.99z M753.99,431.01v-22.52h22.53
	v22.52H753.99z M753.99,407.51v-22.53h22.53v22.53H753.99z M753.99,384.01v-22.52h22.53v22.52H753.99z M753.99,360.51v-22.52h22.53
	v22.52H753.99z M753.99,337.01v-22.53h22.53v22.53H753.99z M753.99,313.51v-22.52h22.53v22.52H753.99z M753.99,290.01v-22.53h22.53
	v22.53H753.99z M753.02,290.01h-22.53v-22.53h22.53V290.01z M729.52,290.01h-22.53v-22.53h22.53V290.01z M706.01,290.01h-22.53
	v-22.53h22.53V290.01z M682.51,290.01h-22.53v-22.53h22.53V290.01z M659.01,290.01h-22.53v-22.53h22.53V290.01z M635.51,290.01
	h-22.53v-22.53h22.53V290.01z M612.01,290.01h-22.52v-22.53h22.52V290.01z M612.01,290.98v22.52h-22.52v-22.52H612.01z
	 M588.51,313.51h-22.53v-22.52h22.53V313.51z M588.51,314.48v22.53h-22.53v-22.53H588.51z M588.51,337.99v22.52h-22.53v-22.52
	H588.51z M588.51,361.49v22.52h-22.53v-22.52H588.51z M588.51,384.99v22.53h-22.53v-22.53H588.51z M588.51,408.49v22.52h-22.53
	v-22.52H588.51z M588.51,431.99v22.52h-22.53v-22.52H588.51z M588.51,455.49v22.53h-22.53v-22.53H588.51z M589.48,455.49h22.52
	v22.53h-22.52V455.49z M612.01,478.99v22.53h-22.52v-22.53H612.01z M612.98,478.99h22.53v22.53h-22.53V478.99z M636.48,478.99h22.53
	v22.53h-22.53V478.99z M659.99,478.99h22.53v22.53h-22.53V478.99z M683.49,478.99h22.53v22.53h-22.53V478.99z M706.99,478.99h22.53
	v22.53h-22.53V478.99z M730.49,478.99h22.53v22.53h-22.53V478.99z M753.99,478.99h22.53v22.53h-22.53V478.99z M753.99,478.02v-22.53
	h22.53v22.53H753.99z M777.49,455.49h22.53v22.53h-22.53V455.49z M777.49,454.52v-22.52h22.53v22.52H777.49z M777.49,431.01v-22.52
	h22.53v22.52H777.49z M777.49,407.51v-22.53h22.53v22.53H777.49z M777.49,384.01v-22.52h22.53v22.52H777.49z M777.49,360.51v-22.52
	h22.53v22.52H777.49z M777.49,337.01v-22.53h22.53v22.53H777.49z M777.49,313.51v-22.52h22.53v22.52H777.49z M777.49,290.01v-22.53
	h22.53v22.53H777.49z M777.49,266.5v-22.53h22.53v22.53H777.49z M776.52,266.5h-22.53v-22.53h22.53V266.5z M753.02,266.5h-22.53
	v-22.53h22.53V266.5z M729.52,266.5h-22.53v-22.53h22.53V266.5z M706.01,266.5h-22.53v-22.53h22.53V266.5z M682.51,266.5h-22.53
	v-22.53h22.53V266.5z M659.01,266.5h-22.53v-22.53h22.53V266.5z M635.51,266.5h-22.53v-22.53h22.53V266.5z M612.01,266.5h-22.52
	v-22.53h22.52V266.5z M588.51,266.5h-22.53v-22.53h22.53V266.5z M588.51,267.48v22.53h-22.53v-22.53H588.51z M565,290.01h-22.52
	v-22.53H565V290.01z M565,290.98v22.52h-22.52v-22.52H565z M565,314.48v22.53h-22.52v-22.53H565z M565,337.99v22.52h-22.52v-22.52
	H565z M565,361.49v22.52h-22.52v-22.52H565z M565,384.99v22.53h-22.52v-22.53H565z M565,408.49v22.52h-22.52v-22.52H565z
	 M565,431.99v22.52h-22.52v-22.52H565z M565,455.49v22.53h-22.52v-22.53H565z M565,478.99v22.53h-22.52v-22.53H565z M565.98,478.99
	h22.53v22.53h-22.53V478.99z M588.51,502.5v22.53h-22.53V502.5H588.51z M589.48,502.5h22.52v22.53h-22.52V502.5z M612.98,502.5
	h22.53v22.53h-22.53V502.5z M636.48,502.5h22.53v22.53h-22.53V502.5z M659.99,502.5h22.53v22.53h-22.53V502.5z M683.49,502.5h22.53
	v22.53h-22.53V502.5z M706.99,502.5h22.53v22.53h-22.53V502.5z M730.49,502.5h22.53v22.53h-22.53V502.5z M753.99,502.5h22.53v22.53
	h-22.53V502.5z M777.49,502.5h22.53v22.53h-22.53V502.5z M777.49,501.52v-22.53h22.53v22.53H777.49z M801,478.99h22.53v22.53H801
	V478.99z M801,478.02v-22.53h22.53v22.53H801z M801,454.52v-22.52h22.53v22.52H801z M801,431.01v-22.52h22.53v22.52H801z
	 M801,407.51v-22.53h22.53v22.53H801z M801,384.01v-22.52h22.53v22.52H801z M801,360.51v-22.52h22.53v22.52H801z M801,337.01v-22.53
	h22.53v22.53H801z M801,313.51v-22.52h22.53v22.52H801z M801,290.01v-22.53h22.53v22.53H801z M801,266.5v-22.53h22.53v22.53H801z
	 M801,243v-22.52h22.53V243H801z M800.02,243h-22.53v-22.52h22.53V243z M776.52,243h-22.53v-22.52h22.53V243z M753.02,243h-22.53
	v-22.52h22.53V243z M729.52,243h-22.53v-22.52h22.53V243z M706.01,243h-22.53v-22.52h22.53V243z M682.51,243h-22.53v-22.52h22.53
	V243z M659.01,243h-22.53v-22.52h22.53V243z M635.51,243h-22.53v-22.52h22.53V243z M612.01,243h-22.52v-22.52h22.52V243z
	 M588.51,243h-22.53v-22.52h22.53V243z M565,243h-22.52v-22.52H565V243z M565,243.98v22.53h-22.52v-22.53H565z M541.5,266.5h-22.53
	v-22.53h22.53V266.5z M541.5,267.48v22.53h-22.53v-22.53H541.5z M541.5,290.98v22.52h-22.53v-22.52H541.5z M541.5,314.48v22.53
	h-22.53v-22.53H541.5z M541.5,337.99v22.52h-22.53v-22.52H541.5z M541.5,361.49v22.52h-22.53v-22.52H541.5z M541.5,384.99v22.53
	h-22.53v-22.53H541.5z M541.5,408.49v22.52h-22.53v-22.52H541.5z M541.5,431.99v22.52h-22.53v-22.52H541.5z M541.5,455.49v22.53
	h-22.53v-22.53H541.5z M541.5,478.99v22.53h-22.53v-22.53H541.5z M541.5,502.5v22.53h-22.53V502.5H541.5z M542.48,502.5H565v22.53
	h-22.52V502.5z M565,526v22.52h-22.52V526H565z M565.98,526h22.53v22.52h-22.53V526z M589.48,526h22.52v22.52h-22.52V526z
	 M612.98,526h22.53v22.52h-22.53V526z M636.48,526h22.53v22.52h-22.53V526z M659.99,526h22.53v22.52h-22.53V526z M683.49,526h22.53
	v22.52h-22.53V526z M706.99,526h22.53v22.52h-22.53V526z M730.49,526h22.53v22.52h-22.53V526z M753.99,526h22.53v22.52h-22.53V526z
	 M777.49,526h22.53v22.52h-22.53V526z M801,526h22.53v22.52H801V526z M801,525.02V502.5h22.53v22.53H801z M824.5,502.5h22.53v22.53
	H824.5V502.5z M824.5,501.52v-22.53h22.53v22.53H824.5z M824.5,478.02v-22.53h22.53v22.53H824.5z M824.5,454.52v-22.52h22.53v22.52
	H824.5z M824.5,431.01v-22.52h22.53v22.52H824.5z M824.5,407.51v-22.53h22.53v22.53H824.5z M824.5,384.01v-22.52h22.53v22.52H824.5z
	 M824.5,360.51v-22.52h22.53v22.52H824.5z M824.5,337.01v-22.53h22.53v22.53H824.5z M824.5,313.51v-22.52h22.53v22.52H824.5z
	 M824.5,290.01v-22.53h22.53v22.53H824.5z M824.5,266.5v-22.53h22.53v22.53H824.5z M824.5,243v-22.52h22.53V243H824.5z M824.5,219.5
	v-22.53h22.53v22.53H824.5z M823.52,219.5H801v-22.53h22.53V219.5z M800.02,219.5h-22.53v-22.53h22.53V219.5z M776.52,219.5h-22.53
	v-22.53h22.53V219.5z M753.02,219.5h-22.53v-22.53h22.53V219.5z M729.52,219.5h-22.53v-22.53h22.53V219.5z M706.01,219.5h-22.53
	v-22.53h22.53V219.5z M682.51,219.5h-22.53v-22.53h22.53V219.5z M659.01,219.5h-22.53v-22.53h22.53V219.5z M635.51,219.5h-22.53
	v-22.53h22.53V219.5z M612.01,219.5h-22.52v-22.53h22.52V219.5z M588.51,219.5h-22.53v-22.53h22.53V219.5z M565,219.5h-22.52v-22.53
	H565V219.5z M541.5,219.5h-22.53v-22.53h22.53V219.5z M541.5,220.48V243h-22.53v-22.52H541.5z M518,243h-22.53v-22.52H518V243z
	 M518,243.98v22.53h-22.53v-22.53H518z M518,267.48v22.53h-22.53v-22.53H518z M518,290.98v22.52h-22.53v-22.52H518z M518,314.48
	v22.53h-22.53v-22.53H518z M518,337.99v22.52h-22.53v-22.52H518z M518,361.49v22.52h-22.53v-22.52H518z M518,384.99v22.53h-22.53
	v-22.53H518z M518,408.49v22.52h-22.53v-22.52H518z M518,431.99v22.52h-22.53v-22.52H518z M518,455.49v22.53h-22.53v-22.53H518z
	 M518,478.99v22.53h-22.53v-22.53H518z M518,502.5v22.53h-22.53V502.5H518z M518,526v22.52h-22.53V526H518z M518.98,526h22.53v22.52
	h-22.53V526z M541.5,549.5v22.53h-22.53V549.5H541.5z M542.48,549.5H565v22.53h-22.52V549.5z M565.98,549.5h22.53v22.53h-22.53
	V549.5z M589.48,549.5h22.52v22.53h-22.52V549.5z M612.98,549.5h22.53v22.53h-22.53V549.5z M636.48,549.5h22.53v22.53h-22.53V549.5z
	 M659.99,549.5h22.53v22.53h-22.53V549.5z M683.49,549.5h22.53v22.53h-22.53V549.5z M706.99,549.5h22.53v22.53h-22.53V549.5z
	 M730.49,549.5h22.53v22.53h-22.53V549.5z M753.99,549.5h22.53v22.53h-22.53V549.5z M777.49,549.5h22.53v22.53h-22.53V549.5z
	 M801,549.5h22.53v22.53H801V549.5z M824.5,549.5h22.53v22.53H824.5V549.5z M824.5,548.52V526h22.53v22.52H824.5z M848,526h22.53
	v22.52H848V526z M848,525.02V502.5h22.53v22.53H848z M848,501.52v-22.53h22.53v22.53H848z M848,478.02v-22.53h22.53v22.53H848z
	 M848,454.52v-22.52h22.53v22.52H848z M848,431.01v-22.52h22.53v22.52H848z M848,407.51v-22.53h22.53v22.53H848z M848,384.01v-22.52
	h22.53v22.52H848z M848,360.51v-22.52h22.53v22.52H848z M848,337.01v-22.53h22.53v22.53H848z M848,313.51v-22.52h22.53v22.52H848z
	 M848,290.01v-22.53h22.53v22.53H848z M848,266.5v-22.53h22.53v22.53H848z M848,243v-22.52h22.53V243H848z M518,196.98v22.53h-22.53
	v-22.53H518z M495.48,549.5H518v22.53h-22.53V549.5z M848,572.02V549.5h22.53v22.53H848z"/>
</svg>
