<svg xmlns="http://www.w3.org/2000/svg" xmlns:xlink="http://www.w3.org/1999/xlink" viewBox="0 0 1920 1080"><defs><style>.cls-1{isolation:isolate;}.cls-2{fill:url(#linear-gradient);}.cls-10,.cls-3,.cls-4,.cls-5,.cls-6,.cls-7,.cls-8,.cls-9{mix-blend-mode:screen;}.cls-3{fill:url(#linear-gradient-2);}.cls-4{fill:url(#linear-gradient-3);}.cls-5{fill:url(#linear-gradient-4);}.cls-6{fill:url(#linear-gradient-5);}.cls-7{fill:url(#linear-gradient-6);}.cls-8{fill:url(#linear-gradient-7);}.cls-9{fill:url(#linear-gradient-8);}.cls-10{fill:url(#linear-gradient-9);}</style><linearGradient id="linear-gradient" x1="960.07" y1="692.88" x2="960.07" y2="1068.48" gradientUnits="userSpaceOnUse"><stop offset="0" stop-color="#ffb7c8"/><stop offset="1" stop-color="#6a2953"/></linearGradient><linearGradient id="linear-gradient-2" x1="319.54" y1="888.81" x2="319.54" y2="903.91" gradientUnits="userSpaceOnUse"><stop offset="0" stop-color="#6b2a54"/><stop offset="0.14" stop-color="#79355b"/><stop offset="0.41" stop-color="#9d516c"/><stop offset="0.77" stop-color="#d77f89"/><stop offset="1" stop-color="#ff9e9c"/></linearGradient><linearGradient id="linear-gradient-3" x1="479.39" y1="928.29" x2="479.39" y2="939.37" xlink:href="#linear-gradient-2"/><linearGradient id="linear-gradient-4" x1="1348.12" y1="897.67" x2="1348.12" y2="910.67" xlink:href="#linear-gradient-2"/><linearGradient id="linear-gradient-5" x1="1347.35" y1="863.33" x2="1347.35" y2="875.13" xlink:href="#linear-gradient-2"/><linearGradient id="linear-gradient-6" x1="769.83" y1="863.58" x2="769.83" y2="876.03" xlink:href="#linear-gradient-2"/><linearGradient id="linear-gradient-7" x1="981.97" y1="928.47" x2="981.97" y2="934.69" xlink:href="#linear-gradient-2"/><linearGradient id="linear-gradient-8" x1="881.17" y1="969.09" x2="881.17" y2="975.31" xlink:href="#linear-gradient-2"/><linearGradient id="linear-gradient-9" x1="1315.17" y1="997.53" x2="1315.17" y2="1009.98" xlink:href="#linear-gradient-2"/></defs><title>Plan de travail 1</title><g class="cls-1"><g id="Calque_1" data-name="Calque 1"><rect class="cls-2" x="0.15" y="817.31" width="1919.85" height="262.3"/><path class="cls-3" d="M520.67,899.08s-90,5.28-201.13,5.28-201.13-5.28-201.13-5.28,90.05-5.27,201.13-5.27S520.67,899.08,520.67,899.08Z"/><path class="cls-4" d="M609.36,935.83s-58.19,3.87-130,3.87-130-3.87-130-3.87,58.19-3.87,130-3.87S609.36,935.83,609.36,935.83Z"/><path class="cls-5" d="M1693.5,906.52s-154.63,4.54-345.38,4.54-345.37-4.54-345.37-4.54S1157.38,902,1348.12,902,1693.5,906.52,1693.5,906.52Z"/><path class="cls-6" d="M1501.63,871.36s-69.08,4.12-154.28,4.12-154.29-4.12-154.29-4.12,69.08-4.12,154.29-4.12S1501.63,871.36,1501.63,871.36Z"/><path class="cls-7" d="M869.16,872.05s-44.47,4.35-99.33,4.35-99.33-4.35-99.33-4.35,44.47-4.35,99.33-4.35S869.16,872.05,869.16,872.05Z"/><path class="cls-8" d="M1064.5,932.7s-37,2.18-82.53,2.18-82.54-2.18-82.54-2.18,37-2.17,82.54-2.17S1064.5,932.7,1064.5,932.7Z"/><path class="cls-9" d="M963.71,973.33s-37,2.17-82.54,2.17-82.53-2.17-82.53-2.17,37-2.18,82.53-2.18S963.71,973.33,963.71,973.33Z"/><path class="cls-10" d="M1414.51,1006s-44.48,4.34-99.34,4.34-99.33-4.34-99.33-4.34,44.47-4.35,99.33-4.35S1414.51,1006,1414.51,1006Z"/></g></g></svg>