<svg id="Calque_1" data-name="Calque 1" xmlns="http://www.w3.org/2000/svg" xmlns:xlink="http://www.w3.org/1999/xlink" viewBox="0 0 1920 1080"><defs><style>.cls-1{fill:url(#linear-gradient);}.cls-2{fill:url(#linear-gradient-2);}.cls-3{fill:url(#linear-gradient-3);}.cls-4{fill:url(#linear-gradient-4);}.cls-5{fill:url(#linear-gradient-5);}.cls-6{fill:url(#linear-gradient-6);}</style><linearGradient id="linear-gradient" x1="670.43" y1="844.03" x2="561.96" y2="398.08" gradientUnits="userSpaceOnUse"><stop offset="0.45" stop-color="#c062a1"/><stop offset="1" stop-color="#1a2c74"/></linearGradient><linearGradient id="linear-gradient-2" x1="1253.2" y1="1096.14" x2="1265.25" y2="356.89" gradientUnits="userSpaceOnUse"><stop offset="0.44" stop-color="#fd75a8"/><stop offset="1" stop-color="#5a2d81"/></linearGradient><linearGradient id="linear-gradient-3" x1="1020.8" y1="1057.88" x2="976.7" y2="520.63" xlink:href="#linear-gradient-2"/><linearGradient id="linear-gradient-4" x1="843.14" y1="925.2" x2="888.74" y2="551.29" gradientUnits="userSpaceOnUse"><stop offset="0.45" stop-color="#c062a1"/><stop offset="1" stop-color="#4b3d7c"/></linearGradient><linearGradient id="linear-gradient-5" x1="333.69" y1="909.74" x2="377.88" y2="644.58" xlink:href="#linear-gradient"/><linearGradient id="linear-gradient-6" x1="1511.62" y1="1084.28" x2="1463.41" y2="662.43" xlink:href="#linear-gradient"/></defs><title>Plan de travail 1</title><path class="cls-1" d="M-37.86,965.16H1437.65c-20.6-6.72-40.73-15.21-61.54-21.65-52.27-16.17-106.3-23.49-157.92-42-55-19.71-107-42.69-162.78-50.07C986,842.29,937.34,832.75,883,783.93c-29.6-26.6-62.31-43.08-96.55-65-36.23-23.21-79.14-70.06-116.32-84.86-25.72-10.23-42.74-25-69.58-38.09-39.35-19.2-78.16-30.42-104.46-64.28-17.89-23-73.41-71.45-102-89.19s-46.61.8-94.82-11.25c-37.27-28.42-58.07-32.94-101.11-54.47-20.26-10.14-43.87-25.29-63-43.16-45.52-42.41-118.35,54-168.54,88-1.49,1-2.91,2.1-4.39,3.13Z"/><path class="cls-2" d="M1938,393.65c-7.75-9.61-15.56-19.24-24.37-28-13.51-13.45-43.43-7.54-53.57-13.39-24.87-14.34-28.67-24.53-57.59-18.75-20.09,4-68.38,42.08-103.46,77.41-38.27,38.55-59.92,44.46-92.06,68.57-10.06,7.54-29.24,11.72-37.5,4-24.78-23.11-52.23-33.48-94.64-.38-65.93,51.44-168.08,92.94-240,181.54-42,51.69-166.2,38.67-220,60.57-70.35,28.66-137.29,79-206.95,109.66-63.49,27.91-163.1,31.37-233.49,78.11H1938Z"/><path class="cls-3" d="M1938,1077.69V596.06c-4.09-4.2-8-8.27-11.59-12.13-23-24.55-94-45.39-118.89-69.31-22.1-21.26-57-60.26-87.07-60.26-26.67,0-34.29,13.2-60.27,30.9-32.72,22.29-82.75,52.07-104,75.48-36.19,39.83-47.65,7.12-91.85,27.2-20.82,9.47-42.67,23.61-68.3,16.07-68.3-20.08-114.07-68.43-156.69-48.21-20.55,9.76-51.23,35.07-72.07,36.58-33,2.4-32.49,38.19-65.44,50.61-41,15.44-42.43-6.15-79.44,17.27-84.36,53.4-120.53,24.49-200.88,80.35-31.61,22-63.9,22.75-100.44,32.14-16.58,4.27-91.16-14.7-108.48-12-39.69,6.09-184.78,34.25-221,48.21-20.14,7.77-240.87,22.83-257.13,36.16C78.23,891.22,84,1022.49,67.31,1077.69Z"/><path class="cls-4" d="M1693.64,731.28c-9.74-5.71-142-12.16-154.1-15.49-21.69-6-108.64-18-132.43-20.65-10.38-1.14-55.07,7-65,5.16-21.89-4-31.58,37.68-50.53,28.26-48.15-23.93-79.49-53.58-130-76.45-22.18-10-23.06-.78-47.61-7.4-19.74-5.32-19.42-20.66-39.21-21.68-12.49-.65-30.88-11.49-43.2-15.67-25.54-8.67-53,12-93.9,20.65-15.36,3.23-28.46-2.83-40.94-6.88-26.48-8.61-33.35,5.4-55-11.66-12.74-10-42.72-29.57-62.33-39.12-15.57-7.58-20.14-6.45-36.12-6.45-18,0-42.74,16.71-56,25.81-14.9,10.25-53.65,19.18-67.45,29.7-26.92,20.5-76.68,54.21-115.63,56.89-13.8,1-24.08-2.71-38,.38-15.42,3.42-30.64,13.94-43.64,21-40.36,21.76-75.85,40.65-118.14,58.69-17.62,7.51-35,20.6-53.34,26.26-20,6.17-21.21-1.16-38.29-3-13.18-1.46-26,4.73-37.44,8-22.91,6.55-62.48,11.18-78.07,23-63.38,6.18-95,15.15-125.66,20.67q-4.66.85-9.39,1.84V849H1552.27c64.33-4,128.79-7,193.3-7.41C1719.45,839.48,1736.25,756.27,1693.64,731.28Z"/><path class="cls-5" d="M-37.86,833.44H778.8c-25-6.88-50.18-14.69-74.27-19.3-31.35-6-63.74-15.75-128.6-22.46-16-12.88-56.45-17.91-79.9-25-11.67-3.54-24.82-10.26-38.31-8.68-17.48,2-18.68,10-39.18,3.31-18.8-6.15-36.56-20.37-54.59-28.53-43.27-19.59-79.6-40.12-120.9-63.75-13.3-7.62-28.88-19-44.66-22.76-14.25-3.36-24.76.61-38.89-.42C119.64,642.92,68.71,606.3,41.17,584c-14.13-11.42-53.78-21.13-69-32.26-2.86-2.09-6.27-4.55-10-7.13Z"/><path class="cls-6" d="M1938,621.4c-5.33.53-10.26,2.05-18.34,6.23-18.44,9.53-46.63,29-58.61,39-20.4,17-26.86,3-51.76,11.63-11.73,4.05-24,10.1-38.49,6.87-38.49-8.59-64.28-29.26-88.3-20.61-11.58,4.17-28.87,15-40.61,15.64-18.61,1-18.31,16.33-36.88,21.64-23.08,6.6-23.91-2.63-44.76,7.39-47.54,22.83-67.92,10.47-113.2,34.36-17.82,9.39-36,9.72-56.6,13.74-9.34,1.82-51.37-6.29-61.13-5.15-22.37,2.6-115.85,66.48-136.25,72.45-11.35,3.32-85.53,32.59-94.69,38.29-40.07,24.94-62.75,33.33-87.31,35.44,60.66.37,121.27,3.37,181.75,7.39H1938Z"/></svg>