<svg id="Calque_2" data-name="Calque 2" xmlns="http://www.w3.org/2000/svg" xmlns:xlink="http://www.w3.org/1999/xlink" viewBox="0 0 1920 1080"><defs><style>.cls-1{fill:url(#linear-gradient);}.cls-2{fill:url(#linear-gradient-2);}.cls-3{fill:url(#linear-gradient-3);}.cls-4{fill:url(#linear-gradient-4);}.cls-5{fill:url(#linear-gradient-5);}.cls-6{fill:url(#linear-gradient-6);}</style><linearGradient id="linear-gradient" x1="631.38" y1="935.61" x2="520.32" y2="479.05" gradientUnits="userSpaceOnUse"><stop offset="0.45" stop-color="#c062a1"/><stop offset="1" stop-color="#1a2c74"/></linearGradient><linearGradient id="linear-gradient-2" x1="1253.92" y1="1272.43" x2="1267.79" y2="421.65" gradientUnits="userSpaceOnUse"><stop offset="0.44" stop-color="#fd75a8"/><stop offset="1" stop-color="#5a2d81"/></linearGradient><linearGradient id="linear-gradient-3" x1="1048.12" y1="1067.85" x2="1009.29" y2="594.94" xlink:href="#linear-gradient-2"/><linearGradient id="linear-gradient-4" x1="944.45" y1="1153.11" x2="1005.84" y2="649.69" gradientUnits="userSpaceOnUse"><stop offset="0.45" stop-color="#c062a1"/><stop offset="1" stop-color="#4b3d7c"/></linearGradient><linearGradient id="linear-gradient-5" x1="356.23" y1="1070" x2="407.37" y2="763.18" xlink:href="#linear-gradient"/><linearGradient id="linear-gradient-6" x1="1511.28" y1="1252.15" x2="1455.49" y2="764.02" xlink:href="#linear-gradient"/></defs><path class="cls-1" d="M0,1080H1333c-20-7.78-26.78,0-47-7.44-50.79-18.72-15.44-.79-65.6-22.19-53.43-22.79-104-49.39-158.16-57.92-67.43-10.62-114.72-21.66-167.52-78.15-28.77-30.78-60.55-49.85-93.81-75.22C765.7,812.23,724,758,687.89,740.9c-25-11.84-41.53-28.93-67.61-44.08-38.23-22.21-75.93-35.19-101.49-74.38-17.38-26.65-71.33-82.67-99.14-103.2s-45.29.92-92.14-13c-36.2-32.88-56.42-38.12-98.24-63-19.68-11.73-42.62-29.27-61.25-49.94C123.79,344.18,53,455.74,4.27,495.08c-1.45,1.17-2.84,2.43-4.27,3.62Z"/><path class="cls-2" d="M1919.8,462.71c-7.53-11.13-15.12-22.27-23.68-32.43-13.13-15.56-42.2-8.72-52-15.49-24.16-16.6-27.85-28.39-56-21.7-19.52,4.65-66.45,48.69-100.53,89.58-37.18,44.59-58.22,51.44-89.45,79.33-9.77,8.73-28.41,13.57-36.43,4.65-24.08-26.75-50.75-38.74-92-.45-64.06,59.53-163.31,107.55-233.22,210.07C1195.74,836.08,1075,821,1022.79,846.36c-68.35,33.15-133.4,91.46-201.08,126.89-61.69,32.29-158.47,36.29-226.87,90.37h1325Z"/><path class="cls-3" d="M1920,1080l-.2-383.08c-4-4.86-7.75-9.58-11.27-14-22.38-28.4-91.35-52.52-115.51-80.2-21.47-24.6-55.4-69.73-84.6-69.73-25.91,0-33.32,15.27-58.56,35.75-31.79,25.8-80.4,60.26-101.06,87.34-35.16,46.09-46.3,8.24-89.24,31.48-20.23,11-41.46,27.32-66.36,18.6-66.36-23.25-110.83-79.19-152.24-55.79-20,11.29-49.78,40.58-70,42.33-32.09,2.77-31.57,44.19-63.58,58.56-39.8,17.87-41.23-7.12-77.19,20-82,61.79-117.1,28.34-195.18,93-30.71,25.43-62.08,26.32-97.59,37.19-16.1,4.93-88.57-17-105.4-14-38.56,7.05-179.53,39.64-214.7,55.79-19.57,9-234,26.41-249.83,41.84-54.66,53.4-1.21,31.07-17.46,95Z"/><path class="cls-4" d="M1682.36,853.38c-9.23-7-138-14.07-149.72-17.92-21.08-6.92-105.56-20.88-128.67-23.9-10.09-1.32-53.52,8.09-63.17,6-21.27-4.65-30.69,43.6-49.09,32.7-46.79-27.69-77.24-62-126.37-88.46-21.54-11.61-22.4-.91-46.25-8.56-19.19-6.16-18.88-23.9-38.11-25.09-12.13-.75-30-13.3-42-18.13-24.81-10-51.46,13.94-91.24,23.9-14.92,3.73-27.64-3.28-39.77-8-25.73-10-32.41,6.26-53.48-13.49C842.14,700.83,813,678.22,794,667.17c-15.13-8.78-19.57-7.47-35.1-7.47-17.5,0-41.52,19.33-54.39,29.87-14.47,11.86-52.12,22.19-65.54,34.36-26.15,23.72-74.5,62.73-112.34,65.83-13.41,1.1-23.4-3.13-36.92.44-15,4-29.78,16.13-42.41,24.24-39.2,25.18-73.7,47-114.78,67.91-17.12,8.69-34,23.84-51.83,30.39-19.46,7.14-20.6-1.34-37.2-3.52-12.8-1.69-25.29,5.47-36.38,9.24-22.26,7.57-60.7,12.93-75.85,26.65C69.64,952.26,38.89,962.63,9.12,969Q4.59,970,0,971.15V1080H1605c62.5-4.66,252.33.43,315,0C1894.63,1077.55,1891,1011,1682.36,853.38Z"/><path class="cls-5" d="M0,994H793.49c-24.28-8-48.76-17-72.17-22.34-30.46-6.95-61.93-18.22-125-26-15.5-14.9-54.84-20.72-77.63-28.94-11.34-4.1-24.12-11.87-37.22-10-17,2.37-18.16,11.58-38.08,3.82-18.26-7.11-35.52-23.57-53-33-42.05-22.67-77.35-46.42-117.47-73.77-12.93-8.81-28.06-22-43.4-26.34-13.84-3.88-24.06.72-37.78-.48-38.73-3.37-88.21-45.74-115-71.51C63.06,692.18,24.53,681,9.72,668.08c-2.78-2.42-6.09-5.27-9.72-8.26Z"/><path class="cls-6" d="M1919.8,726.23c-5.18.62-10,2.38-17.82,7.21-17.92,11-45.31,33.6-57,45.18-19.81,19.71-26.09,3.53-50.29,13.47-11.4,4.68-23.36,11.68-37.4,7.95-37.39-9.94-62.45-33.86-85.79-23.86-11.25,4.83-28,17.36-39.46,18.1-18.08,1.19-17.79,18.9-35.83,25.05-22.43,7.64-23.23-3.05-43.49,8.54-46.2,26.42-66,12.12-110,39.76-17.31,10.87-35,11.25-55,15.9-9.07,2.11-49.91-7.28-59.39-6-21.73,3-112.56,76.93-132.38,83.84-11,3.84-83.11,37.71-92,44.31-38.92,28.85-61,38.56-84.82,41,58.93.43,117.82,3.9,176.59,8.55h724Z"/></svg>