<svg xmlns="http://www.w3.org/2000/svg" xmlns:xlink="http://www.w3.org/1999/xlink" viewBox="0 0 1920 1080"><defs><style>.cls-1{isolation:isolate;}.cls-2{fill:url(#linear-gradient);}.cls-3{fill:url(#linear-gradient-2);}.cls-4{fill:url(#linear-gradient-3);}.cls-5{fill:url(#linear-gradient-4);}.cls-6{fill:#fff;opacity:0.3;mix-blend-mode:screen;}</style><linearGradient id="linear-gradient" x1="960.02" y1="-7.58" x2="960.02" y2="921.17" gradientUnits="userSpaceOnUse"><stop offset="0" stop-color="#6b2a54"/><stop offset="0.19" stop-color="#8d4464"/><stop offset="0.57" stop-color="#ca7582"/><stop offset="0.85" stop-color="#f09395"/><stop offset="1" stop-color="#ff9e9c"/></linearGradient><linearGradient id="linear-gradient-2" x1="959.78" y1="-540.46" x2="959.78" y2="394.68" gradientUnits="userSpaceOnUse"><stop offset="0" stop-color="#fff"/><stop offset="1" stop-color="#fff" stop-opacity="0"/></linearGradient><linearGradient id="linear-gradient-3" x1="1271.2" y1="-97.19" x2="1271.2" y2="413.63" xlink:href="#linear-gradient-2"/><linearGradient id="linear-gradient-4" x1="959.78" y1="-1072.76" x2="959.78" y2="174.71" xlink:href="#linear-gradient-2"/></defs><title>Plan de travail 1</title><g class="cls-1"><g id="Calque_1" data-name="Calque 1"><rect class="cls-2" y="-2" width="1920.05" height="1082"/><polygon class="cls-3" points="1920 251.25 1920 293.46 -0.43 396.99 -0.43 315.62 1920 251.25"/><polygon class="cls-4" points="1920 329.39 1920 385.67 622.39 409 1920 329.39"/><polygon class="cls-5" points="1920 1.82 1920 112.46 -0.43 192.41 -0.43 -2 1920 1.82"/><path class="cls-6" d="M1371.07,522H1100c10.48-17.26,34.46-26.52,52.54-17.53,7.74-18.89,18.94-39.07,37.59-47.35s44.48-2.32,52.44,16.48c5.86-12.47,22.33-18.67,35-13.17s19.31,21.78,14.18,34.57a31.77,31.77,0,0,1,51.91,12.87C1351.84,498.62,1369.42,509.74,1371.07,522Z"/><path class="cls-6" d="M1865.36,426.83h-271.1c10.48-17.26,34.47-26.53,52.55-17.54,7.74-18.88,18.93-39.06,37.58-47.35s44.49-2.31,52.44,16.48c5.87-12.47,22.34-18.67,35-13.17S1791.12,387,1786,399.82a31.78,31.78,0,0,1,51.9,12.87C1846.13,403.41,1863.7,414.53,1865.36,426.83Z"/><path class="cls-6" d="M347.62,368.64H76.52C87,351.38,111,342.12,129.07,351.1c7.74-18.88,18.93-39.06,37.58-47.34s44.49-2.32,52.44,16.47c5.87-12.46,22.34-18.67,35-13.17s19.32,21.79,14.19,34.58a31.77,31.77,0,0,1,51.9,12.86C328.39,345.23,346,356.34,347.62,368.64Z"/><path class="cls-6" d="M1259.38,145.15h157.73c-6.1-10-20.06-15.43-30.58-10.21-4.5-11-11-22.72-21.86-27.54s-25.89-1.35-30.51,9.58c-3.42-7.25-13-10.86-20.35-7.66s-11.24,12.67-8.25,20.12a18.48,18.48,0,0,0-30.2,7.48C1270.57,131.52,1260.34,138,1259.38,145.15Z"/><path class="cls-6" d="M306.79,153.83H458.52c-5.86-9.66-19.29-14.85-29.41-9.82-4.33-10.57-10.59-21.86-21-26.5s-24.9-1.29-29.35,9.22c-3.28-7-12.5-10.44-19.57-7.36s-10.82,12.19-7.94,19.35a17.78,17.78,0,0,0-29.05,7.2C317.56,140.72,307.72,147,306.79,153.83Z"/></g></g></svg>